<?xml version="1.0" encoding="utf-8"?>
<svg width="324" height="72" viewBox="0 0 324 72" fill="none" xmlns="http://www.w3.org/2000/svg">
  <g clip-path="url(#clip0_193_321)">
    <path fill-rule="evenodd" clip-rule="evenodd" d="M18 39.2999C10.044 39.2999 3.60001 46.0124 3.60001 54.3C3.60001 60.9375 7.72201 66.5437 13.446 68.5312C14.166 68.6625 14.436 68.2125 14.436 67.8187C14.436 67.4625 14.418 66.2812 14.418 65.025C10.8 65.7187 9.86401 64.1062 9.57601 63.2625C9.41401 62.8312 8.71201 61.5 8.10001 61.1437C7.59601 60.8625 6.87601 60.1687 8.08201 60.15C9.21601 60.1312 10.026 61.2375 10.296 61.6875C11.592 63.9562 13.662 63.3187 14.49 62.925C14.616 61.95 14.994 61.2937 15.408 60.9187C12.204 60.5437 8.85601 59.25 8.85601 53.5125C8.85601 51.8812 9.41401 50.5311 10.332 49.4811C10.188 49.1062 9.68401 47.5686 10.476 45.5061C10.476 45.5061 11.682 45.1124 14.436 47.0437C15.588 46.7062 16.812 46.5374 18.036 46.5374C19.26 46.5374 20.484 46.7062 21.636 47.0437C24.39 45.0937 25.596 45.5061 25.596 45.5061C26.388 47.5686 25.884 49.1062 25.74 49.4811C26.658 50.5311 27.216 51.8625 27.216 53.5125C27.216 59.2687 23.85 60.5437 20.646 60.9187C21.168 61.3875 21.618 62.2875 21.618 63.6937C21.618 65.7 21.6 67.3125 21.6 67.8187C21.6 68.2125 21.87 68.6812 22.59 68.5312C28.278 66.5437 32.4 60.9187 32.4 54.3C32.4 46.0124 25.956 39.2999 18 39.2999Z" fill="#60C4FF"/>
    <path fill-rule="evenodd" clip-rule="evenodd" d="M18 3.29993C10.044 3.29993 3.60001 10.0124 3.60001 18.3C3.60001 24.9375 7.72201 30.5437 13.446 32.5312C14.166 32.6625 14.436 32.2125 14.436 31.8187C14.436 31.4625 14.418 30.2812 14.418 29.025C10.8 29.7187 9.86401 28.1062 9.57601 27.2625C9.41401 26.8312 8.71201 25.5 8.10001 25.1437C7.59601 24.8625 6.87601 24.1687 8.08201 24.15C9.21601 24.1312 10.026 25.2375 10.296 25.6875C11.592 27.9562 13.662 27.3187 14.49 26.925C14.616 25.95 14.994 25.2937 15.408 24.9187C12.204 24.5437 8.85601 23.25 8.85601 17.5125C8.85601 15.8812 9.41401 14.5312 10.332 13.4811C10.188 13.1062 9.68401 11.5687 10.476 9.50618C10.476 9.50618 11.682 9.11243 14.436 11.0437C15.588 10.7062 16.812 10.5374 18.036 10.5374C19.26 10.5374 20.484 10.7062 21.636 11.0437C24.39 9.09368 25.596 9.50618 25.596 9.50618C26.388 11.5687 25.884 13.1062 25.74 13.4811C26.658 14.5312 27.216 15.8625 27.216 17.5125C27.216 23.2687 23.85 24.5437 20.646 24.9187C21.168 25.3875 21.618 26.2875 21.618 27.6937C21.618 29.7 21.6 31.3125 21.6 31.8187C21.6 32.2125 21.87 32.6812 22.59 32.5312C28.278 30.5437 32.4 24.9187 32.4 18.3C32.4 10.0124 25.956 3.29993 18 3.29993Z" fill="white"/>
    <path fill-rule="evenodd" clip-rule="evenodd" d="M50.952 51.3002C50 51.3002 49.2483 52.111 49.2483 53.1002C49.2483 54.0895 50.0167 54.9002 50.952 54.9002C51.9041 54.9002 52.6558 54.0895 52.6558 53.1002C52.6725 52.111 51.9041 51.3002 50.952 51.3002ZM57.0487 51.3002C56.0965 51.3002 55.3449 52.111 55.3449 53.1002C55.3449 54.0895 56.1132 54.9002 57.0487 54.9002C58.0007 54.9002 58.7523 54.0895 58.7523 53.1002C58.7523 52.111 58.0007 51.3002 57.0487 51.3002Z" fill="#60C4FF"/>
    <path fill-rule="evenodd" clip-rule="evenodd" d="M64.9162 36.9001H43.0841C41.2431 36.9001 39.7441 38.4733 39.7441 40.4227V63.5419C39.7441 65.4913 41.2431 67.0645 43.0841 67.0645H61.5598L60.6964 63.901L62.7818 65.9359L64.7532 67.8511L68.2561 71.1001V40.4227C68.2561 38.4733 66.7572 36.9001 64.9162 36.9001ZM58.6273 59.2327C58.6273 59.2327 58.0406 58.4974 57.5519 57.8476C59.6862 57.2149 60.5008 55.8127 60.5008 55.8127C59.8328 56.2744 59.1975 56.5993 58.6273 56.8216C57.8125 57.1807 57.0306 57.4201 56.2648 57.5569C54.7007 57.8647 53.267 57.7792 52.045 57.5398C51.1164 57.3517 50.318 57.0781 49.65 56.8045C49.2753 56.6506 48.868 56.4625 48.4607 56.2231C48.4118 56.1889 48.3629 56.1718 48.314 56.1376C48.2814 56.1205 48.2652 56.1034 48.2489 56.0863C47.9556 55.9153 47.7927 55.7956 47.7927 55.7956C47.7927 55.7956 48.5747 57.1636 50.6439 57.8134C50.1551 58.4632 49.5523 59.2327 49.5523 59.2327C45.9516 59.113 44.583 56.6335 44.583 56.6335C44.583 51.1273 46.9292 46.6642 46.9292 46.6642C49.2753 44.8174 51.5073 44.8687 51.5073 44.8687L51.6703 45.0739C48.7376 45.9631 47.3854 47.314 47.3854 47.314C47.3854 47.314 47.7438 47.1088 48.3466 46.8181C50.0899 46.0144 51.4748 45.7921 52.045 45.7408C52.1428 45.7237 52.2241 45.7066 52.3219 45.7066C53.3158 45.5698 54.44 45.5356 55.613 45.6724C57.1609 45.8605 58.8227 46.3393 60.5171 47.314C60.5171 47.314 59.23 46.0315 56.4603 45.1423L56.6884 44.8687C56.6884 44.8687 58.9204 44.8174 61.2666 46.6642C61.2666 46.6642 63.6127 51.1273 63.6127 56.6335C63.6127 56.6335 62.2278 59.113 58.6273 59.2327Z" fill="#60C4FF"/>
    <path fill-rule="evenodd" clip-rule="evenodd" d="M50.9519 15.3002C49.9999 15.3002 49.2483 16.111 49.2483 17.1002C49.2483 18.0895 50.0166 18.9002 50.9519 18.9002C51.904 18.9002 52.6557 18.0895 52.6557 17.1002C52.6724 16.111 51.904 15.3002 50.9519 15.3002ZM57.0486 15.3002C56.0965 15.3002 55.3448 16.111 55.3448 17.1002C55.3448 18.0895 56.1132 18.9002 57.0486 18.9002C58.0006 18.9002 58.7522 18.0895 58.7522 17.1002C58.7522 16.111 58.0006 15.3002 57.0486 15.3002Z" fill="white"/>
    <path fill-rule="evenodd" clip-rule="evenodd" d="M64.9162 0.900146H43.0841C41.2431 0.900146 39.7441 2.47335 39.7441 4.42275V27.5419C39.7441 29.4913 41.2431 31.0645 43.0841 31.0645H61.5598L60.6964 27.901L62.7818 29.9359L64.7532 31.8511L68.2561 35.1001V4.42275C68.2561 2.47335 66.7572 0.900146 64.9162 0.900146ZM58.6273 23.2327C58.6273 23.2327 58.0406 22.4974 57.5519 21.8476C59.6862 21.2149 60.5008 19.8127 60.5008 19.8127C59.8328 20.2744 59.1975 20.5993 58.6273 20.8216C57.8125 21.1807 57.0306 21.4201 56.2648 21.5569C54.7007 21.8647 53.267 21.7792 52.045 21.5398C51.1164 21.3517 50.318 21.0781 49.65 20.8045C49.2753 20.6506 48.868 20.4625 48.4607 20.2231C48.4118 20.1889 48.3629 20.1718 48.314 20.1376C48.2814 20.1205 48.2652 20.1034 48.2489 20.0863C47.9556 19.9153 47.7927 19.7956 47.7927 19.7956C47.7927 19.7956 48.5747 21.1636 50.6439 21.8134C50.1551 22.4632 49.5523 23.2327 49.5523 23.2327C45.9516 23.113 44.583 20.6335 44.583 20.6335C44.583 15.1273 46.9292 10.6642 46.9292 10.6642C49.2753 8.81745 51.5073 8.86875 51.5073 8.86875L51.6703 9.07395C48.7376 9.96315 47.3854 11.314 47.3854 11.314C47.3854 11.314 47.7438 11.1088 48.3466 10.8181C50.0899 10.0144 51.4748 9.79215 52.045 9.74085C52.1428 9.72375 52.2241 9.70665 52.3219 9.70665C53.3158 9.56985 54.44 9.53565 55.613 9.67245C57.1609 9.86055 58.8227 10.3393 60.5171 11.314C60.5171 11.314 59.23 10.0315 56.4603 9.14235L56.6884 8.86875C56.6884 8.86875 58.9204 8.81745 61.2666 10.6642C61.2666 10.6642 63.6127 15.1273 63.6127 20.6335C63.6127 20.6335 62.2278 23.113 58.6273 23.2327Z" fill="white"/>
    <path fill-rule="evenodd" clip-rule="evenodd" d="M95.5027 37.2H104.394L90.6974 61.2421C89.9149 62.5819 89.1517 63.613 88.4081 64.3357C87.6635 65.0588 86.9761 65.584 86.3459 65.9125C85.7152 66.241 85.1731 66.4319 84.7188 66.4838C84.265 66.5366 83.9488 66.5627 83.7732 66.5627H75.6V45.7923H83.2435L83.2815 60.0595L95.5027 37.2Z" fill="#60C4FF"/>
    <path fill-rule="evenodd" clip-rule="evenodd" d="M78.4655 69.2174C78.4778 69.1274 78.4627 69.0652 78.4197 69.0308H78.422C78.3823 68.9999 78.3251 68.9842 78.2502 68.9842H76.8292C76.7442 68.9842 76.6656 69.0037 76.593 69.0451C76.529 69.079 76.4888 69.1204 76.4723 69.1675L76.3219 69.5993H77.3704L77.2648 69.902H76.2159L75.8937 70.8247H75.6007L76.1803 69.1675C76.2278 69.0328 76.3265 68.9161 76.4764 68.8195C76.6218 68.7266 76.7753 68.6795 76.9353 68.6795H78.3562C78.507 68.6795 78.6186 68.7238 78.6926 68.809C78.7735 68.8961 78.7963 69.0328 78.7598 69.217L78.4655 69.2174Z" fill="#60C4FF"/>
    <path fill-rule="evenodd" clip-rule="evenodd" d="M80.5635 69.7969C80.5694 69.7112 80.5443 69.6532 80.4899 69.6226C80.4693 69.6098 80.446 69.5998 80.4204 69.5945C80.3944 69.5903 80.3674 69.5875 80.3391 69.5875H79.6531C79.584 69.5875 79.5155 69.6017 79.4474 69.6298C79.3692 69.6602 79.3226 69.6998 79.3053 69.7469L78.9286 70.8253H78.6361L79.1741 69.2855H79.4671L79.4446 69.3499C79.5022 69.3269 79.5562 69.3109 79.6064 69.3008C79.6563 69.2908 79.7065 69.2855 79.7563 69.2855H80.4446C80.5753 69.2855 80.6819 69.3203 80.7646 69.3889C80.8642 69.4732 80.8934 69.6083 80.8532 69.7969H80.5635Z" fill="#60C4FF"/>
    <path fill-rule="evenodd" clip-rule="evenodd" d="M83.1647 69.7426C83.1154 69.8854 83.0062 70.0021 82.8394 70.0934C82.7018 70.1692 82.5619 70.2058 82.4207 70.2058H81.7342C81.6885 70.2058 81.6469 70.2016 81.6067 70.1939C81.5674 70.1858 81.5194 70.1707 81.4632 70.1473L81.3914 70.3534L81.3896 70.3582C81.3796 70.4015 81.4033 70.4396 81.4623 70.4738C81.4874 70.4924 81.5139 70.5043 81.5409 70.5124C81.5688 70.52 81.5962 70.5229 81.6241 70.5229H82.3105C82.3384 70.5229 82.3677 70.52 82.3965 70.5158C82.4257 70.5106 82.4554 70.5014 82.4847 70.4887C82.5615 70.4572 82.6268 70.3991 82.6803 70.3139H82.9701C82.88 70.501 82.7562 70.6357 82.598 70.7195C82.4682 70.7896 82.3375 70.8253 82.2054 70.8253H81.5194C81.3873 70.8253 81.2767 70.789 81.1872 70.7171C81.0756 70.6267 81.045 70.5082 81.0971 70.361L81.3124 69.745C81.3636 69.5989 81.4696 69.4826 81.63 69.3961C81.7653 69.3227 81.9074 69.2855 82.0578 69.2855H82.7434C82.8878 69.2855 83.003 69.3208 83.0889 69.3917C83.1903 69.4784 83.2159 69.5945 83.1647 69.7426ZM82.8934 70.0086C82.9074 69.8855 82.8934 69.7786 82.8506 69.6839C82.805 69.5656 82.7389 69.5055 82.6524 69.5055H81.9563C81.8958 69.5055 81.8274 69.5505 81.7502 69.639C81.6692 69.7308 81.6208 69.8524 81.6041 70.0024C81.5878 70.1482 81.6083 70.2684 81.666 70.3645C81.7176 70.4592 81.7776 70.5055 81.8442 70.5055H82.5431C82.6259 70.5055 82.7045 70.4487 82.778 70.3347C82.8409 70.2414 82.8795 70.1331 82.8934 70.0086Z" fill="#60C4FF"/>
    <path fill-rule="evenodd" clip-rule="evenodd" d="M85.464 69.7426C85.4147 69.8854 85.3059 70.0021 85.1391 70.0934C85.001 70.1692 84.8617 70.2058 84.7204 70.2058H84.034C83.9882 70.2058 83.9467 70.2016 83.9064 70.1939C83.8671 70.1858 83.8191 70.1707 83.7629 70.1473L83.6912 70.3534L83.6893 70.3582C83.6793 70.4015 83.703 70.4396 83.762 70.4738C83.7871 70.4924 83.8137 70.5043 83.8406 70.5124C83.8685 70.52 83.8959 70.5229 83.9238 70.5229H84.6103C84.6382 70.5229 84.6669 70.52 84.6962 70.5158C84.7254 70.5106 84.7552 70.5014 84.7849 70.4887C84.8612 70.4572 84.9266 70.3991 84.98 70.3139H85.2693C85.1797 70.501 85.0559 70.6357 84.8978 70.7195C84.768 70.7896 84.6377 70.8253 84.5056 70.8253H83.8191C83.6875 70.8253 83.5769 70.789 83.4869 70.7171C83.3753 70.6267 83.3452 70.5082 83.3968 70.361L83.6121 69.745C83.6628 69.5989 83.7693 69.4826 83.9297 69.3961C84.0655 69.3227 84.2072 69.2855 84.3571 69.2855H85.0431C85.1875 69.2855 85.3027 69.3208 85.3882 69.3917C85.4901 69.4784 85.5161 69.5945 85.464 69.7426ZM85.1939 70.0086C85.2074 69.8855 85.1934 69.7786 85.1511 69.6839C85.1055 69.5656 85.0394 69.5055 84.9528 69.5055H84.257C84.1961 69.5055 84.1272 69.5505 84.0504 69.639C83.9694 69.7308 83.921 69.8524 83.9043 70.0024C83.888 70.1482 83.9085 70.2684 83.9661 70.3645C84.0178 70.4592 84.0778 70.5055 84.1449 70.5055H84.8434C84.9263 70.5055 85.0045 70.4487 85.0785 70.3347C85.1408 70.2414 85.1795 70.1331 85.1939 70.0086Z" fill="#60C4FF"/>
    <path fill-rule="evenodd" clip-rule="evenodd" d="M89.8823 70.6871C89.7425 70.7791 89.5913 70.8251 89.4295 70.8251H88.004C87.8545 70.8251 87.7425 70.7833 87.6685 70.7C87.588 70.61 87.5657 70.4719 87.6008 70.2872H87.8907C87.8806 70.3744 87.8966 70.4362 87.9382 70.4738H87.9355C87.9779 70.5062 88.036 70.5233 88.1096 70.5233H89.5354C89.6187 70.5233 89.6969 70.5029 89.7686 70.4624C89.8353 70.4267 89.876 70.3843 89.8929 70.3367L89.9788 70.091C89.9948 70.043 89.983 70.0016 89.9422 69.9659C89.8985 69.925 89.8344 69.9044 89.7494 69.9044H88.3257C88.1657 69.9044 88.0456 69.8582 87.9666 69.7664C87.8819 69.6716 87.8632 69.554 87.913 69.4136L87.999 69.1675C88.0465 69.0328 88.1453 68.9161 88.2952 68.8195C88.4405 68.7266 88.5931 68.6795 88.7535 68.6795H90.1794C90.3289 68.6795 90.4399 68.7238 90.5131 68.809C90.5944 68.8961 90.6173 69.0328 90.5807 69.217H90.2906C90.3001 69.1298 90.2841 69.0674 90.2425 69.0304H90.2448C90.2059 68.9995 90.1479 68.9837 90.073 68.9837H88.647C88.562 68.9837 88.4825 69.0032 88.4089 69.0446C88.3444 69.0784 88.3042 69.1199 88.2883 69.167L88.2023 69.4132C88.185 69.4627 88.196 69.5045 88.2353 69.5407C88.2792 69.5816 88.3444 69.6022 88.4308 69.6022H89.8569C90.0186 69.6022 90.1379 69.6484 90.2137 69.7397C90.2978 69.8368 90.3161 69.953 90.2677 70.0906L90.1817 70.3363C90.1338 70.4753 90.0337 70.5934 89.8823 70.6871Z" fill="#60C4FF"/>
    <path fill-rule="evenodd" clip-rule="evenodd" d="M92.149 70.7128C92.0128 70.7875 91.873 70.8251 91.7304 70.8251H91.044C90.9042 70.8251 90.7907 70.7879 90.7039 70.7152C90.5983 70.6247 90.5709 70.5067 90.6216 70.3615L90.8369 69.7454C90.8867 69.6025 90.9955 69.4859 91.1628 69.394C91.3003 69.3188 91.4411 69.2812 91.5837 69.2812H92.2697C92.4045 69.2812 92.5161 69.3164 92.6029 69.3874C92.7127 69.4787 92.7423 69.5968 92.6906 69.743L92.4745 70.3619C92.4251 70.5038 92.3164 70.6208 92.149 70.7128ZM92.3982 69.753C92.4141 69.7037 92.3935 69.6631 92.3374 69.63C92.2894 69.6001 92.2313 69.5858 92.1631 69.5858H91.4773C91.4082 69.5858 91.3406 69.5991 91.2752 69.6276C91.1947 69.662 91.1468 69.7037 91.1308 69.753L90.9137 70.4156C90.8977 70.4649 90.9178 70.5055 90.9744 70.5386C91.0253 70.57 91.0833 70.5858 91.1477 70.5858H91.836C91.8671 70.5858 91.8995 70.5821 91.9338 70.5751C91.9672 70.5674 92.0019 70.5573 92.0366 70.5417C92.1175 70.5066 92.1655 70.4639 92.1824 70.4132L92.3982 69.753Z" fill="#60C4FF"/>
    <path fill-rule="evenodd" clip-rule="evenodd" d="M93.5433 69.5876L93.0761 70.8254H92.759L93.3954 69.1415C93.4503 68.9977 93.5526 68.8816 93.703 68.7949C93.8355 68.7197 94.0007 68.6821 94.199 68.6821L94.0867 68.9797C93.9621 68.9977 93.8722 69.02 93.8153 69.0476C93.7594 69.0763 93.7248 69.1072 93.7119 69.1415L93.657 69.2857H93.9734L93.8592 69.5881L93.5433 69.5876Z" fill="#60C4FF"/>
    <path fill-rule="evenodd" clip-rule="evenodd" d="M95.0132 69.5881L94.4592 70.8259H94.0824L94.6358 69.5881H94.2644L94.399 69.2858H94.7704L95.0414 68.6803H95.4188L95.1478 69.2858H95.5224L95.3871 69.5881H95.0132Z" fill="#60C4FF"/>
    <path fill-rule="evenodd" clip-rule="evenodd" d="M97.0401 70.7072C96.9163 70.7839 96.7761 70.823 96.6207 70.823C96.5356 70.823 96.4565 70.8106 96.3835 70.7858C96.3099 70.7611 96.2481 70.7225 96.1975 70.6706C96.1092 70.721 96.0178 70.7602 95.925 70.7858C95.8318 70.8125 95.7431 70.8253 95.6582 70.8253C95.5083 70.8253 95.3967 70.7878 95.3227 70.7129C95.2404 70.6268 95.2257 70.5101 95.2779 70.3616L95.6536 69.2857H95.9456L95.5695 70.364C95.5539 70.4102 95.5667 70.4473 95.6101 70.4768C95.6576 70.5077 95.7234 70.5235 95.8085 70.5235C95.8949 70.5235 95.9707 70.5083 96.037 70.4768C96.1014 70.4488 96.1422 70.4102 96.1594 70.3616L96.3917 69.6985H96.6837L96.4515 70.3636C96.4346 70.4111 96.4487 70.4477 96.4931 70.4735C96.5406 70.5044 96.6041 70.5202 96.6865 70.5202C96.7742 70.5202 96.8515 70.5049 96.9173 70.4735C96.9825 70.4459 97.0219 70.4092 97.0384 70.3636L97.415 69.2852H97.7097L97.3341 70.3612C97.2834 70.5055 97.185 70.6211 97.0401 70.7072Z" fill="#60C4FF"/>
    <path fill-rule="evenodd" clip-rule="evenodd" d="M99.2422 70.7152C99.1047 70.7879 98.963 70.8251 98.8171 70.8251H98.1307C97.9835 70.8251 97.8666 70.789 97.7825 70.717C97.6797 70.6309 97.6545 70.5148 97.7066 70.3657C97.7568 70.2214 97.8651 70.1053 98.0315 70.0172C98.1691 69.9419 98.3094 69.9049 98.4525 69.9049H99.1385C99.1823 69.9049 99.2243 69.9091 99.2632 69.9167C99.3034 69.9253 99.3505 69.941 99.4068 69.9638L99.4799 69.7549C99.4895 69.7106 99.4657 69.6716 99.4104 69.6377C99.3606 69.6049 99.3066 69.5882 99.2485 69.5882H98.5627C98.5329 69.5882 98.5032 69.5911 98.4744 69.5954C98.4456 69.6007 98.4154 69.6101 98.3857 69.6235C98.3094 69.6539 98.2436 69.7126 98.191 69.7978H97.9008C97.9927 69.6106 98.1161 69.4759 98.2715 69.392C98.4008 69.3217 98.5324 69.286 98.6659 69.286H99.3542C99.489 69.286 99.6005 69.3212 99.6873 69.392C99.7979 69.4807 99.8277 69.5992 99.7747 69.7477L99.5599 70.3643C99.5092 70.5095 99.4026 70.6261 99.2422 70.7152ZM99.2888 70.6102C99.3046 70.4664 99.2842 70.3449 99.2265 70.2469C99.1745 70.1538 99.1164 70.106 99.0507 70.106H98.3525C98.2716 70.106 98.1926 70.1646 98.1154 70.2772C98.0522 70.3699 98.0136 70.4797 97.9996 70.6027C97.9852 70.7304 97.9983 70.8416 98.0387 70.9362C98.087 71.0487 98.1531 71.106 98.2382 71.106H98.9382C99.0066 71.106 99.0745 71.0653 99.1414 70.9825C99.2237 70.8789 99.2725 70.7545 99.2888 70.6102Z" fill="#60C4FF"/>
    <path fill-rule="evenodd" clip-rule="evenodd" d="M101.773 69.7969C101.779 69.7112 101.754 69.6532 101.699 69.6226C101.679 69.6098 101.655 69.5998 101.63 69.5945C101.604 69.5903 101.577 69.5875 101.549 69.5875H100.863C100.794 69.5875 100.725 69.6017 100.658 69.6298C100.579 69.6602 100.532 69.6998 100.514 69.7469L100.139 70.8253H99.8458L100.383 69.2855H100.676L100.654 69.3499C100.712 69.3269 100.766 69.3109 100.816 69.3008C100.865 69.2908 100.915 69.2855 100.966 69.2855H101.654C101.785 69.2855 101.891 69.3203 101.974 69.3889C102.074 69.4732 102.102 69.6083 102.062 69.7969H101.773Z" fill="#60C4FF"/>
    <path fill-rule="evenodd" clip-rule="evenodd" d="M104.374 69.7426C104.325 69.8854 104.216 70.0021 104.049 70.0934C103.911 70.1692 103.771 70.2058 103.63 70.2058H102.944C102.898 70.2058 102.856 70.2016 102.817 70.1939C102.777 70.1858 102.729 70.1707 102.673 70.1473L102.601 70.3534L102.599 70.3582C102.589 70.4015 102.613 70.4396 102.671 70.4738C102.697 70.4924 102.723 70.5043 102.751 70.5124C102.778 70.52 102.805 70.5229 102.834 70.5229H103.52C103.548 70.5229 103.577 70.52 103.606 70.5158C103.635 70.5106 103.665 70.5014 103.694 70.4887C103.771 70.4572 103.836 70.3991 103.889 70.3139H104.179C104.089 70.501 103.965 70.6357 103.807 70.7195C103.677 70.7896 103.547 70.8253 103.414 70.8253H102.728C102.597 70.8253 102.486 70.789 102.396 70.7171C102.284 70.6267 102.255 70.5082 102.306 70.361L102.522 69.745C102.572 69.5989 102.678 69.4826 102.839 69.3961C102.974 69.3227 103.117 69.2855 103.266 69.2855H103.953C104.096 69.2855 104.212 69.3208 104.297 69.3917C104.4 69.4784 104.426 69.5945 104.374 69.7426ZM104.103 70.0086C104.117 69.8855 104.103 69.7786 104.061 69.6839C104.015 69.5656 103.949 69.5055 103.862 69.5055H103.167C103.106 69.5055 103.037 69.5505 102.96 69.639C102.879 69.7308 102.831 69.8524 102.814 70.0024C102.797 70.1482 102.818 70.2684 102.876 70.3645C102.928 70.4592 102.987 70.5055 103.055 70.5055H103.753C103.836 70.5055 103.914 70.4487 103.988 70.3347C104.051 70.2414 104.089 70.1331 104.103 70.0086Z" fill="#60C4FF"/>
    <path fill-rule="evenodd" clip-rule="evenodd" d="M104.394 65.0236C104.394 65.4622 104.209 65.8306 103.837 66.1295C103.496 66.4181 103.069 66.5629 102.559 66.5629H98.0667C97.5964 66.5629 97.1974 66.4315 96.8706 66.1681C96.5187 65.8844 96.2965 65.4517 96.2021 64.8689H97.116C97.1805 65.1422 97.2989 65.3378 97.4721 65.4569H97.4648C97.6326 65.5601 97.8336 65.6111 98.0663 65.6111H102.559C102.816 65.6111 103.039 65.5492 103.228 65.4254C103.396 65.3122 103.48 65.1779 103.48 65.0231V64.2496C103.48 64.1048 103.396 63.9763 103.228 63.8624C103.029 63.7288 102.804 63.6616 102.552 63.6616H100.16V62.71H102.559C102.821 62.71 103.045 62.6456 103.228 62.5166C103.396 62.4038 103.48 62.2714 103.48 62.1224V61.3487C103.48 61.2041 103.396 61.075 103.228 60.9617C103.029 60.8275 102.804 60.7603 102.552 60.7603H98.0663C97.8382 60.7603 97.6399 60.8117 97.4717 60.9151H97.4793C97.3012 61.0237 97.1801 61.2193 97.1156 61.5031H96.2015C96.2906 60.9151 96.5086 60.4867 96.8555 60.2186C97.1823 59.9453 97.5859 59.8091 98.0663 59.8091H102.559C103.059 59.8091 103.485 59.9534 103.836 60.2419C104.208 60.5465 104.394 60.9151 104.394 61.3483C104.394 61.7249 104.379 62.0677 104.349 62.3767C104.339 62.5313 104.29 62.6737 104.201 62.8027C104.161 62.8594 104.115 62.9185 104.063 62.9807C104.012 63.0427 103.948 63.1099 103.874 63.1817C104.017 63.3212 104.127 63.4498 104.201 63.5687C104.285 63.7135 104.335 63.8525 104.349 63.9868C104.38 64.2914 104.394 64.6366 104.394 65.0236Z" fill="#60C4FF"/>
    <path fill-rule="evenodd" clip-rule="evenodd" d="M95.5027 1.20001H104.394L90.6974 25.2421C89.9149 26.5819 89.1517 27.613 88.4081 28.3357C87.6635 29.0588 86.9761 29.584 86.3459 29.9125C85.7152 30.241 85.1731 30.4319 84.7188 30.4838C84.265 30.5366 83.9488 30.5627 83.7732 30.5627H75.6V9.79233H83.2435L83.2815 24.0595L95.5027 1.20001Z" fill="white"/>
    <path fill-rule="evenodd" clip-rule="evenodd" d="M78.4655 33.2174C78.4778 33.1274 78.4627 33.0652 78.4197 33.0308H78.422C78.3823 32.9999 78.3251 32.9842 78.2502 32.9842H76.8292C76.7442 32.9842 76.6656 33.0037 76.593 33.0451C76.529 33.079 76.4888 33.1204 76.4723 33.1675L76.3219 33.5993H77.3704L77.2648 33.902H76.2159L75.8937 34.8247H75.6007L76.1803 33.1675C76.2278 33.0328 76.3265 32.9161 76.4764 32.8195C76.6218 32.7266 76.7753 32.6795 76.9353 32.6795H78.3562C78.507 32.6795 78.6186 32.7238 78.6926 32.809C78.7735 32.8961 78.7963 33.0328 78.7598 33.217L78.4655 33.2174Z" fill="white"/>
    <path fill-rule="evenodd" clip-rule="evenodd" d="M80.5635 33.7969C80.5694 33.7112 80.5443 33.6532 80.4899 33.6226C80.4693 33.6098 80.446 33.5998 80.4204 33.5945C80.3944 33.5903 80.3674 33.5875 80.3391 33.5875H79.6531C79.584 33.5875 79.5155 33.6017 79.4474 33.6298C79.3692 33.6602 79.3226 33.6998 79.3053 33.7469L78.9286 34.8253H78.6361L79.1741 33.2855H79.4671L79.4446 33.3499C79.5022 33.3269 79.5562 33.3109 79.6064 33.3008C79.6563 33.2908 79.7065 33.2855 79.7563 33.2855H80.4446C80.5753 33.2855 80.6819 33.3203 80.7646 33.3889C80.8642 33.4732 80.8934 33.6083 80.8532 33.7969H80.5635Z" fill="white"/>
    <path fill-rule="evenodd" clip-rule="evenodd" d="M83.1647 33.7426C83.1154 33.8854 83.0062 34.0021 82.8394 34.0934C82.7018 34.1692 82.5619 34.2058 82.4207 34.2058H81.7342C81.6885 34.2058 81.6469 34.2016 81.6067 34.1939C81.5674 34.1858 81.5194 34.1707 81.4632 34.1473L81.3914 34.3534L81.3896 34.3582C81.3796 34.4015 81.4033 34.4396 81.4623 34.4738C81.4874 34.4924 81.5139 34.5043 81.5409 34.5124C81.5688 34.52 81.5962 34.5229 81.6241 34.5229H82.3105C82.3384 34.5229 82.3677 34.52 82.3965 34.5158C82.4257 34.5106 82.4554 34.5014 82.4847 34.4887C82.5615 34.4572 82.6268 34.3991 82.6803 34.3139H82.9701C82.88 34.501 82.7562 34.6357 82.598 34.7195C82.4682 34.7896 82.3375 34.8253 82.2054 34.8253H81.5194C81.3873 34.8253 81.2767 34.789 81.1872 34.7171C81.0756 34.6267 81.045 34.5082 81.0971 34.361L81.3124 33.745C81.3636 33.5989 81.4696 33.4826 81.63 33.3961C81.7653 33.3227 81.9074 33.2855 82.0578 33.2855H82.7434C82.8878 33.2855 83.003 33.3208 83.0889 33.3917C83.1903 33.4784 83.2159 33.5945 83.1647 33.7426ZM82.8934 34.0086C82.9074 33.8856 82.8934 33.7786 82.8506 33.684C82.805 33.5656 82.7389 33.5055 82.6524 33.5055H81.9563C81.8958 33.5055 81.8274 33.5505 81.7502 33.639C81.6692 33.7308 81.6208 33.8524 81.6041 34.0024C81.5878 34.1482 81.6083 34.2684 81.666 34.3645C81.7176 34.4592 81.7776 34.5055 81.8442 34.5055H82.5431C82.6259 34.5055 82.7045 34.4487 82.778 34.3347C82.8409 34.2414 82.8795 34.1331 82.8934 34.0086Z" fill="white"/>
    <path fill-rule="evenodd" clip-rule="evenodd" d="M85.464 33.7426C85.4147 33.8854 85.3059 34.0021 85.1391 34.0934C85.001 34.1692 84.8617 34.2058 84.7204 34.2058H84.034C83.9882 34.2058 83.9467 34.2016 83.9064 34.1939C83.8671 34.1858 83.8191 34.1707 83.7629 34.1473L83.6912 34.3534L83.6893 34.3582C83.6793 34.4015 83.703 34.4396 83.762 34.4738C83.7871 34.4924 83.8137 34.5043 83.8406 34.5124C83.8685 34.52 83.8959 34.5229 83.9238 34.5229H84.6103C84.6382 34.5229 84.6669 34.52 84.6962 34.5158C84.7254 34.5106 84.7552 34.5014 84.7849 34.4887C84.8612 34.4572 84.9266 34.3991 84.98 34.3139H85.2693C85.1797 34.501 85.0559 34.6357 84.8978 34.7195C84.768 34.7896 84.6377 34.8253 84.5056 34.8253H83.8191C83.6875 34.8253 83.5769 34.789 83.4869 34.7171C83.3753 34.6267 83.3452 34.5082 83.3968 34.361L83.6121 33.745C83.6628 33.5989 83.7693 33.4826 83.9297 33.3961C84.0655 33.3227 84.2072 33.2855 84.3571 33.2855H85.0431C85.1875 33.2855 85.3027 33.3208 85.3882 33.3917C85.4901 33.4784 85.5161 33.5945 85.464 33.7426ZM85.1939 34.0086C85.2074 33.8856 85.1934 33.7786 85.1511 33.684C85.1055 33.5656 85.0394 33.5055 84.9528 33.5055H84.257C84.1961 33.5055 84.1272 33.5505 84.0504 33.639C83.9694 33.7308 83.921 33.8524 83.9043 34.0024C83.888 34.1482 83.9085 34.2684 83.9661 34.3645C84.0178 34.4592 84.0778 34.5055 84.1449 34.5055H84.8434C84.9263 34.5055 85.0045 34.4487 85.0785 34.3347C85.1408 34.2414 85.1795 34.1331 85.1939 34.0086Z" fill="white"/>
    <path fill-rule="evenodd" clip-rule="evenodd" d="M89.8823 34.6871C89.7425 34.7791 89.5913 34.8251 89.4295 34.8251H88.004C87.8545 34.8251 87.7425 34.7833 87.6685 34.7C87.588 34.61 87.5657 34.4719 87.6008 34.2872H87.8907C87.8806 34.3744 87.8966 34.4362 87.9382 34.4738H87.9355C87.9779 34.5062 88.036 34.5233 88.1096 34.5233H89.5354C89.6187 34.5233 89.6969 34.5029 89.7686 34.4624C89.8353 34.4267 89.876 34.3843 89.8929 34.3367L89.9788 34.091C89.9948 34.043 89.983 34.0016 89.9422 33.9659C89.8985 33.925 89.8344 33.9044 89.7494 33.9044H88.3257C88.1657 33.9044 88.0456 33.8582 87.9666 33.7664C87.8819 33.6716 87.8632 33.554 87.913 33.4136L87.999 33.1675C88.0465 33.0328 88.1453 32.9161 88.2952 32.8195C88.4405 32.7266 88.5931 32.6795 88.7535 32.6795H90.1794C90.3289 32.6795 90.4399 32.7238 90.5131 32.809C90.5944 32.8961 90.6173 33.0328 90.5807 33.217H90.2906C90.3001 33.1298 90.2841 33.0674 90.2425 33.0304H90.2448C90.2059 32.9995 90.1479 32.9837 90.073 32.9837H88.647C88.562 32.9837 88.4825 33.0032 88.4089 33.0446C88.3444 33.0784 88.3042 33.1199 88.2883 33.167L88.2023 33.4132C88.185 33.4627 88.196 33.5045 88.2353 33.5407C88.2792 33.5816 88.3444 33.6022 88.4308 33.6022H89.8569C90.0186 33.6022 90.1379 33.6484 90.2137 33.7397C90.2978 33.8368 90.3161 33.953 90.2677 34.0906L90.1817 34.3363C90.1338 34.4753 90.0337 34.5934 89.8823 34.6871Z" fill="white"/>
    <path fill-rule="evenodd" clip-rule="evenodd" d="M92.149 34.7128C92.0128 34.7875 91.873 34.8251 91.7304 34.8251H91.044C90.9042 34.8251 90.7907 34.7879 90.7039 34.7152C90.5983 34.6247 90.5709 34.5067 90.6216 34.3615L90.8369 33.7454C90.8867 33.6025 90.9955 33.4859 91.1628 33.394C91.3003 33.3188 91.4411 33.2812 91.5837 33.2812H92.2697C92.4045 33.2812 92.5161 33.3164 92.6029 33.3874C92.7127 33.4787 92.7423 33.5968 92.6906 33.743L92.4745 34.3619C92.4251 34.5038 92.3164 34.6208 92.149 34.7128ZM92.3982 33.753C92.4141 33.7037 92.3935 33.6631 92.3374 33.63C92.2894 33.6001 92.2313 33.5858 92.1631 33.5858H91.4773C91.4082 33.5858 91.3406 33.5991 91.2752 33.6276C91.1947 33.662 91.1468 33.7037 91.1308 33.753L90.9137 34.4156C90.8977 34.4649 90.9178 34.5055 90.9744 34.5386C91.0253 34.57 91.0833 34.5858 91.1477 34.5858H91.836C91.8671 34.5858 91.8995 34.5821 91.9338 34.5751C91.9672 34.5674 92.0019 34.5573 92.0366 34.5417C92.1175 34.5066 92.1655 34.4639 92.1824 34.4132L92.3982 33.753Z" fill="white"/>
    <path fill-rule="evenodd" clip-rule="evenodd" d="M93.5433 33.5876L93.0761 34.8254H92.759L93.3954 33.1415C93.4503 32.9977 93.5526 32.8816 93.703 32.7949C93.8355 32.7197 94.0007 32.6821 94.199 32.6821L94.0867 32.9797C93.9621 32.9977 93.8722 33.02 93.8153 33.0476C93.7594 33.0763 93.7248 33.1072 93.7119 33.1415L93.657 33.2857H93.9734L93.8592 33.5881L93.5433 33.5876Z" fill="white"/>
    <path fill-rule="evenodd" clip-rule="evenodd" d="M95.0132 33.5881L94.4592 34.8259H94.0824L94.6358 33.5881H94.2644L94.399 33.2858H94.7704L95.0414 32.6803H95.4188L95.1478 33.2858H95.5224L95.3871 33.5881H95.0132Z" fill="white"/>
    <path fill-rule="evenodd" clip-rule="evenodd" d="M97.0401 34.7072C96.9163 34.7839 96.7761 34.823 96.6207 34.823C96.5356 34.823 96.4565 34.8106 96.3835 34.7858C96.3099 34.7611 96.2481 34.7225 96.1975 34.6706C96.1092 34.721 96.0178 34.7602 95.925 34.7858C95.8318 34.8125 95.7431 34.8253 95.6582 34.8253C95.5083 34.8253 95.3967 34.7878 95.3227 34.7129C95.2404 34.6268 95.2257 34.5101 95.2779 34.3616L95.6536 33.2857H95.9456L95.5695 34.364C95.5539 34.4102 95.5667 34.4473 95.6101 34.4768C95.6576 34.5077 95.7234 34.5235 95.8085 34.5235C95.8949 34.5235 95.9707 34.5083 96.037 34.4768C96.1014 34.4488 96.1422 34.4102 96.1594 34.3616L96.3917 33.6985H96.6837L96.4515 34.3636C96.4346 34.4111 96.4487 34.4477 96.4931 34.4735C96.5406 34.5044 96.6041 34.5202 96.6865 34.5202C96.7742 34.5202 96.8515 34.5049 96.9173 34.4735C96.9825 34.4459 97.0219 34.4092 97.0384 34.3636L97.415 33.2852H97.7097L97.3341 34.3612C97.2834 34.5055 97.185 34.6211 97.0401 34.7072Z" fill="white"/>
    <path fill-rule="evenodd" clip-rule="evenodd" d="M99.2422 34.7152C99.1047 34.7879 98.963 34.8251 98.8171 34.8251H98.1307C97.9835 34.8251 97.8666 34.789 97.7825 34.717C97.6797 34.6309 97.6545 34.5148 97.7066 34.3657C97.7568 34.2214 97.8651 34.1053 98.0315 34.0172C98.1691 33.9419 98.3094 33.9049 98.4525 33.9049H99.1385C99.1823 33.9049 99.2243 33.9091 99.2632 33.9167C99.3034 33.9253 99.3505 33.941 99.4068 33.9638L99.4799 33.7549C99.4895 33.7106 99.4657 33.6716 99.4104 33.6377C99.3606 33.6049 99.3066 33.5882 99.2485 33.5882H98.5627C98.5329 33.5882 98.5032 33.5911 98.4744 33.5954C98.4456 33.6007 98.4154 33.6101 98.3857 33.6235C98.3094 33.6539 98.2436 33.7126 98.191 33.7978H97.9008C97.9927 33.6106 98.1161 33.4759 98.2715 33.392C98.4008 33.3217 98.5324 33.286 98.6659 33.286H99.3542C99.489 33.286 99.6005 33.3212 99.6873 33.392C99.7979 33.4807 99.8277 33.5992 99.7747 33.7477L99.5599 34.3643C99.5092 34.5095 99.4026 34.6261 99.2422 34.7152ZM99.2888 34.6102C99.3046 34.4664 99.2842 34.3449 99.2265 34.2469C99.1745 34.1538 99.1164 34.106 99.0507 34.106H98.3525C98.2716 34.106 98.1926 34.1646 98.1154 34.2772C98.0522 34.3699 98.0136 34.4797 97.9996 34.6027C97.9852 34.7304 97.9983 34.8416 98.0387 34.9362C98.087 35.0487 98.1531 35.106 98.2382 35.106H98.9382C99.0066 35.106 99.0745 35.0653 99.1414 34.9825C99.2237 34.8789 99.2725 34.7545 99.2888 34.6102Z" fill="white"/>
    <path fill-rule="evenodd" clip-rule="evenodd" d="M101.773 33.7969C101.779 33.7112 101.754 33.6532 101.699 33.6226C101.679 33.6098 101.655 33.5998 101.63 33.5945C101.604 33.5903 101.577 33.5875 101.549 33.5875H100.863C100.794 33.5875 100.725 33.6017 100.658 33.6298C100.579 33.6602 100.532 33.6998 100.514 33.7469L100.139 34.8253H99.8458L100.383 33.2855H100.676L100.654 33.3499C100.712 33.3269 100.766 33.3109 100.816 33.3008C100.865 33.2908 100.915 33.2855 100.966 33.2855H101.654C101.785 33.2855 101.891 33.3203 101.974 33.3889C102.074 33.4732 102.102 33.6083 102.062 33.7969H101.773Z" fill="white"/>
    <path fill-rule="evenodd" clip-rule="evenodd" d="M104.374 33.7426C104.325 33.8854 104.216 34.0021 104.049 34.0934C103.911 34.1692 103.771 34.2058 103.63 34.2058H102.944C102.898 34.2058 102.856 34.2016 102.817 34.1939C102.777 34.1858 102.729 34.1707 102.673 34.1473L102.601 34.3534L102.599 34.3582C102.589 34.4015 102.613 34.4396 102.671 34.4738C102.697 34.4924 102.723 34.5043 102.751 34.5124C102.778 34.52 102.805 34.5229 102.834 34.5229H103.52C103.548 34.5229 103.577 34.52 103.606 34.5158C103.635 34.5106 103.665 34.5014 103.694 34.4887C103.771 34.4572 103.836 34.3991 103.889 34.3139H104.179C104.089 34.501 103.965 34.6357 103.807 34.7195C103.677 34.7896 103.547 34.8253 103.414 34.8253H102.728C102.597 34.8253 102.486 34.789 102.396 34.7171C102.284 34.6267 102.255 34.5082 102.306 34.361L102.522 33.745C102.572 33.5989 102.678 33.4826 102.839 33.3961C102.974 33.3227 103.117 33.2855 103.266 33.2855H103.953C104.096 33.2855 104.212 33.3208 104.297 33.3917C104.4 33.4784 104.426 33.5945 104.374 33.7426ZM104.103 34.0086C104.117 33.8856 104.103 33.7786 104.061 33.684C104.015 33.5656 103.949 33.5055 103.862 33.5055H103.167C103.106 33.5055 103.037 33.5505 102.96 33.639C102.879 33.7308 102.831 33.8524 102.814 34.0024C102.797 34.1482 102.818 34.2684 102.876 34.3645C102.928 34.4592 102.987 34.5055 103.055 34.5055H103.753C103.836 34.5055 103.914 34.4487 103.988 34.3347C104.051 34.2414 104.089 34.1331 104.103 34.0086Z" fill="white"/>
    <path fill-rule="evenodd" clip-rule="evenodd" d="M104.394 29.0236C104.394 29.4622 104.209 29.8306 103.837 30.1295C103.496 30.4181 103.069 30.5629 102.559 30.5629H98.0667C97.5964 30.5629 97.1974 30.4315 96.8706 30.1681C96.5187 29.8844 96.2965 29.4517 96.2021 28.8689H97.116C97.1805 29.1422 97.2989 29.3378 97.4721 29.4569H97.4648C97.6326 29.5601 97.8336 29.6111 98.0663 29.6111H102.559C102.816 29.6111 103.039 29.5492 103.228 29.4254C103.396 29.3122 103.48 29.1779 103.48 29.0231V28.2496C103.48 28.1048 103.396 27.9763 103.228 27.8624C103.029 27.7288 102.804 27.6616 102.552 27.6616H100.16V26.71H102.559C102.821 26.71 103.045 26.6456 103.228 26.5166C103.396 26.4038 103.48 26.2714 103.48 26.1224V25.3487C103.48 25.2041 103.396 25.075 103.228 24.9617C103.029 24.8275 102.804 24.7603 102.552 24.7603H98.0663C97.8382 24.7603 97.6399 24.8117 97.4717 24.9151H97.4793C97.3012 25.0237 97.1801 25.2193 97.1156 25.5031H96.2015C96.2906 24.9151 96.5086 24.4867 96.8555 24.2186C97.1823 23.9453 97.5859 23.8091 98.0663 23.8091H102.559C103.059 23.8091 103.485 23.9534 103.836 24.2419C104.208 24.5465 104.394 24.9151 104.394 25.3483C104.394 25.7249 104.379 26.0677 104.349 26.3767C104.339 26.5313 104.29 26.6737 104.201 26.8027C104.161 26.8594 104.115 26.9185 104.063 26.9807C104.012 27.0427 103.948 27.1099 103.874 27.1817C104.017 27.3212 104.127 27.4498 104.201 27.5687C104.285 27.7135 104.335 27.8525 104.349 27.9868C104.38 28.2914 104.394 28.6366 104.394 29.0236Z" fill="white"/>
    <path fill-rule="evenodd" clip-rule="evenodd" d="M120.601 57.6572C121.948 57.6572 123.043 56.5575 123.043 55.206V51.0055C123.043 47.7248 125.703 45.056 128.973 45.056C129.149 45.056 129.324 45.0653 129.497 45.0806L125.998 39L120.083 49.2806C120.253 49.2656 120.426 49.2565 120.601 49.2565H122.053C121.901 49.8142 121.819 50.4002 121.819 51.0055V52.7547H120.601C119.253 52.7547 118.158 53.8544 118.158 55.206C118.158 56.5575 119.253 57.6572 120.601 57.6572Z" fill="#60C4FF"/>
    <path fill-rule="evenodd" clip-rule="evenodd" d="M134.348 53.5122C133.403 55.5434 131.35 56.9551 128.973 56.9551H127.52C127.672 56.3973 127.754 55.8113 127.754 55.206V53.4568H128.973C130.32 53.4568 131.416 52.3571 131.416 51.0055C131.416 49.654 130.32 48.5543 128.973 48.5543C127.626 48.5543 126.53 49.654 126.53 51.0055V55.206C126.53 58.4867 123.87 61.1556 120.601 61.1556C118.226 61.1556 116.173 59.7466 115.228 57.7185L112.283 62.8367H139.713L134.348 53.5122Z" fill="#60C4FF"/>
    <path fill-rule="evenodd" clip-rule="evenodd" d="M130.664 67.0739H129.704C129.704 67.0739 129.69 66.8645 129.69 66.5924C129.69 66.3205 129.704 66.1109 129.704 66.1109C129.704 66.1109 129.854 66.0966 130.184 66.0966C130.515 66.0966 130.664 66.1109 130.664 66.1109C130.664 66.1109 130.678 66.2769 130.678 66.5924C130.678 66.9079 130.664 67.0739 130.664 67.0739ZM130.664 65.1482H129.704C129.174 65.1482 128.745 65.5792 128.745 66.1109V68.9995H129.704V68.0368H130.664V68.9995H131.624V66.1109C131.624 65.5792 131.194 65.1482 130.664 65.1482Z" fill="#60C4FF"/>
    <path fill-rule="evenodd" clip-rule="evenodd" d="M139.041 67.0699C139.041 67.0699 138.875 67.0842 138.561 67.0842C138.246 67.0842 138.081 67.0699 138.081 67.0699V66.1069C138.081 66.1069 138.29 66.0924 138.561 66.0924C138.832 66.0924 139.041 66.1069 139.041 66.1069C139.041 66.1069 139.055 66.2567 139.055 66.5884C139.055 66.9201 139.041 67.0699 139.041 67.0699ZM139.042 65.144H137.121V68.9955H138.081V68.0326H139.042C139.571 68.0326 140 67.6022 140 67.0709V66.1056C140 65.5745 139.571 65.144 139.042 65.144Z" fill="#60C4FF"/>
    <path fill-rule="evenodd" clip-rule="evenodd" d="M112 66.1107V68.0366C112 68.5683 112.43 68.9994 112.959 68.9995L114.879 69V68.0371H112.96V66.1107H114.879V65.1477H112.96C112.43 65.1477 112 65.579 112 66.1107Z" fill="#60C4FF"/>
    <path fill-rule="evenodd" clip-rule="evenodd" d="M121.521 65.1479H120.561V68.0362C120.561 68.5681 120.991 68.9994 121.521 68.9995L123.062 69V68.0371H121.521V65.1479Z" fill="#60C4FF"/>
    <path d="M120.601 21.6572C121.948 21.6572 123.043 20.5575 123.043 19.206V15.0055C123.043 11.7248 125.703 9.05596 128.973 9.05596C129.149 9.05596 129.324 9.06529 129.497 9.08056L125.998 3L120.083 13.2806C120.253 13.2656 120.426 13.2565 120.601 13.2565H122.053C121.901 13.8142 121.819 14.4002 121.819 15.0055V16.7547H120.601C119.253 16.7547 118.158 17.8544 118.158 19.206C118.158 20.5575 119.253 21.6572 120.601 21.6572Z" fill="white"/>
    <path d="M134.348 17.5122C133.403 19.5434 131.35 20.9551 128.973 20.9551H127.52C127.672 20.3973 127.754 19.8113 127.754 19.206V17.4568H128.973C130.32 17.4568 131.416 16.3571 131.416 15.0055C131.416 13.654 130.32 12.5543 128.973 12.5543C127.626 12.5543 126.53 13.654 126.53 15.0055V19.206C126.53 22.4867 123.87 25.1556 120.601 25.1556C118.226 25.1556 116.173 23.7466 115.228 21.7185L112.283 26.8367H139.713L134.348 17.5122Z" fill="white"/>
    <path fill-rule="evenodd" clip-rule="evenodd" d="M130.664 31.0739H129.704C129.704 31.0739 129.69 30.8645 129.69 30.5924C129.69 30.3205 129.704 30.1109 129.704 30.1109C129.704 30.1109 129.854 30.0966 130.184 30.0966C130.515 30.0966 130.664 30.1109 130.664 30.1109C130.664 30.1109 130.678 30.2769 130.678 30.5924C130.678 30.9079 130.664 31.0739 130.664 31.0739ZM130.664 29.1482H129.704C129.174 29.1482 128.745 29.5792 128.745 30.1109V32.9995H129.704V32.0368H130.664V32.9995H131.624V30.1109C131.624 29.5792 131.194 29.1482 130.664 29.1482Z" fill="white"/>
    <path fill-rule="evenodd" clip-rule="evenodd" d="M139.041 31.0699C139.041 31.0699 138.875 31.0842 138.561 31.0842C138.246 31.0842 138.081 31.0699 138.081 31.0699V30.1069C138.081 30.1069 138.29 30.0924 138.561 30.0924C138.832 30.0924 139.041 30.1069 139.041 30.1069C139.041 30.1069 139.055 30.2567 139.055 30.5884C139.055 30.9201 139.041 31.0699 139.041 31.0699ZM139.042 29.144H137.121V32.9955H138.081V32.0326H139.042C139.571 32.0326 140 31.6022 140 31.0709V30.1056C140 29.5745 139.571 29.144 139.042 29.144Z" fill="white"/>
    <path d="M112 30.1107V32.0366C112 32.5683 112.43 32.9994 112.959 32.9995L114.879 33V32.0371H112.96V30.1107H114.879V29.1477H112.96C112.43 29.1477 112 29.579 112 30.1107Z" fill="white"/>
    <path d="M121.521 29.1479H120.561V32.0362C120.561 32.5682 120.991 32.9994 121.521 32.9995L123.062 33V32.0371H121.521V29.1479Z" fill="white"/>
    <path d="M154.137 3L160.109 24.8829H163.891L169.887 3H166.199L161.988 17.8735L157.777 3H154.137Z" fill="white"/>
    <path d="M164.272 24.8829H167.952L173.932 3H170.268L164.272 24.8829Z" fill="white"/>
    <path d="M168.348 24.8829H172.012L178 3H174.328L168.348 24.8829Z" fill="white"/>
    <path fill-rule="evenodd" clip-rule="evenodd" d="M214.5 70.5H181.5V37.5H214.5V70.5Z" stroke="#60C4FF"/>
    <path fill-rule="evenodd" clip-rule="evenodd" d="M189.316 51.5709C189.316 53.5575 190.005 55.503 191.256 57.0421L192.233 56.2472C191.162 54.9316 190.573 53.2709 190.573 51.5709C190.573 49.8725 191.159 48.2126 192.227 46.8985L191.25 46.1054C190.003 47.645 189.316 49.5857 189.316 51.5709Z" fill="#60C4FF"/>
    <path fill-rule="evenodd" clip-rule="evenodd" d="M186.912 51.5709C186.912 54.1031 187.789 56.5787 189.38 58.5443L190.355 57.7526C188.945 56.0105 188.167 53.816 188.167 51.5709C188.167 49.3249 188.942 47.1312 190.351 45.3915L189.373 44.5995C187.786 46.5631 186.912 49.0379 186.912 51.5709Z" fill="#60C4FF"/>
    <path fill-rule="evenodd" clip-rule="evenodd" d="M184.534 51.5709C184.534 54.6478 185.601 57.6563 187.535 60.0451L188.514 59.2529C186.76 57.088 185.792 54.3594 185.792 51.5709C185.792 48.7836 186.755 46.0595 188.503 43.9L187.524 43.1072C185.596 45.4917 184.534 48.4974 184.534 51.5709Z" fill="#60C4FF"/>
    <path fill-rule="evenodd" clip-rule="evenodd" d="M203.762 46.8985C204.827 48.2126 205.413 49.8725 205.413 51.5709C205.413 53.2709 204.824 54.9316 203.755 56.2472L204.73 57.0421C205.983 55.503 206.673 53.5575 206.673 51.5709C206.673 49.5857 205.986 47.645 204.738 46.1054L203.762 46.8985Z" fill="#60C4FF"/>
    <path fill-rule="evenodd" clip-rule="evenodd" d="M205.637 45.3915C207.043 47.1312 207.819 49.3249 207.819 51.5709C207.819 53.816 207.042 56.0106 205.631 57.7526L206.608 58.5443C208.2 56.5787 209.076 54.1031 209.076 51.5709C209.076 49.0379 208.2 46.5631 206.614 44.5995L205.637 45.3915Z" fill="#60C4FF"/>
    <path fill-rule="evenodd" clip-rule="evenodd" d="M207.485 43.9C209.232 46.0595 210.194 48.7836 210.194 51.5709C210.194 54.3594 209.228 57.088 207.474 59.2529L208.452 60.0451C210.387 57.6563 211.454 54.6478 211.454 51.5709C211.454 48.4974 210.392 45.4917 208.464 43.1072L207.485 43.9Z" fill="#60C4FF"/>
    <path fill-rule="evenodd" clip-rule="evenodd" d="M192.312 51.5709C192.312 54.7036 194.861 57.2534 197.994 57.2534C201.127 57.2534 203.675 54.7036 203.675 51.5709C203.675 48.436 201.127 45.8871 197.994 45.8871C194.861 45.8871 192.312 48.436 192.312 51.5709ZM193.515 51.5709C193.515 49.1009 195.525 47.0925 197.994 47.0925C200.462 47.0925 202.47 49.1009 202.47 51.5709C202.47 54.0405 200.462 56.0481 197.994 56.0481C195.525 56.0481 193.515 54.0405 193.515 51.5709Z" fill="#60C4FF"/>
    <path fill-rule="evenodd" clip-rule="evenodd" d="M187.707 67.2105H187.078L186.734 66.1337H185.538L185.211 67.2105H184.599L185.783 63.531H186.515L187.707 67.2105ZM186.643 65.6829L186.328 64.7171C186.294 64.6203 186.231 64.3879 186.14 64.0219H186.13C186.091 64.1789 186.033 64.4103 185.952 64.7171L185.643 65.6829H186.643Z" fill="#60C4FF"/>
    <path fill-rule="evenodd" clip-rule="evenodd" d="M190.372 67.2104H189.853L189.821 66.8116H189.812C189.623 67.116 189.345 67.2684 188.968 67.2684C188.705 67.2684 188.498 67.189 188.341 67.0304C188.153 66.828 188.062 66.5242 188.062 66.1214V64.5554H188.652V66.0211C188.652 66.5312 188.829 66.7876 189.175 66.7876C189.435 66.7876 189.618 66.6574 189.719 66.4035C189.745 66.3389 189.758 66.264 189.758 66.1789V64.5554H190.349V66.4493C190.349 66.7003 190.356 66.9547 190.372 67.2104Z" fill="#60C4FF"/>
    <path fill-rule="evenodd" clip-rule="evenodd" d="M193.469 67.2105H192.944L192.916 66.7893H192.901C192.733 67.1102 192.448 67.2684 192.048 67.2684C191.728 67.2684 191.461 67.1431 191.25 66.8939C191.037 66.6437 190.931 66.3215 190.931 65.9177C190.931 65.489 191.047 65.1424 191.277 64.8771C191.502 64.629 191.777 64.5043 192.102 64.5043C192.461 64.5043 192.712 64.6268 192.855 64.8665V63.3434H193.447V66.4988C193.447 66.7578 193.453 66.9962 193.469 67.2105ZM192.855 66.0963V65.6544C192.855 65.5772 192.85 65.5147 192.838 65.4675C192.806 65.3267 192.735 65.2056 192.625 65.1107C192.515 65.0126 192.385 64.9635 192.231 64.9635C192.013 64.9635 191.838 65.0518 191.714 65.2271C191.587 65.4025 191.526 65.6277 191.526 65.8994C191.526 66.1604 191.584 66.3768 191.705 66.539C191.832 66.7135 192.005 66.8023 192.222 66.8023C192.414 66.8023 192.567 66.7288 192.686 66.5825C192.798 66.447 192.855 66.2861 192.855 66.0963Z" fill="#60C4FF"/>
    <path fill-rule="evenodd" clip-rule="evenodd" d="M195.117 63.9091C195.117 64.0616 195.068 64.1823 194.973 64.2739C194.878 64.3697 194.753 64.4137 194.601 64.4137C194.466 64.4137 194.352 64.3683 194.257 64.2695C194.165 64.1757 194.117 64.0547 194.117 63.9092C194.117 63.7677 194.165 63.6455 194.26 63.5531C194.355 63.4594 194.476 63.4137 194.617 63.4137C194.759 63.4137 194.878 63.4594 194.973 63.5531C195.068 63.6455 195.117 63.7676 195.117 63.9091ZM195.184 67.2105H194.184V64.5554H195.184V67.2105Z" fill="#60C4FF"/>
    <path fill-rule="evenodd" clip-rule="evenodd" d="M197.948 65.8654C197.948 66.2734 197.832 66.6092 197.599 66.8714C197.355 67.1361 197.031 67.2684 196.626 67.2684C196.235 67.2684 195.925 67.1399 195.693 66.8832C195.463 66.6265 195.348 66.3035 195.348 65.907C195.348 65.4983 195.465 65.1607 195.704 64.8976C195.944 64.6375 196.265 64.5043 196.669 64.5043C197.06 64.5043 197.372 64.6361 197.611 64.8941C197.836 65.1435 197.948 65.4675 197.948 65.8654ZM197.337 65.8811C197.337 65.6373 197.284 65.4281 197.178 65.2523C197.054 65.0411 196.878 64.9345 196.647 64.9345C196.411 64.9345 196.231 65.0411 196.107 65.2523C196.001 65.4281 195.948 65.6428 195.948 65.8919C195.948 66.1351 196.001 66.3473 196.107 66.5207C196.233 66.7308 196.412 66.8388 196.643 66.8388C196.869 66.8388 197.045 66.7297 197.172 66.5152C197.282 66.3384 197.337 66.1253 197.337 65.8811Z" fill="#60C4FF"/>
    <path fill-rule="evenodd" clip-rule="evenodd" d="M202.574 65.669C202.574 66.2104 202.441 66.6199 202.18 66.891C201.939 67.1422 201.6 67.2684 201.162 67.2684C200.265 67.2684 199.818 66.7386 199.818 65.6797V63.531H200.41V65.7105C200.41 66.0719 200.482 66.3473 200.627 66.5312C200.759 66.7051 200.943 66.7948 201.185 66.7948C201.716 66.7948 201.981 66.4334 201.981 65.7105V63.531H202.574V65.669Z" fill="#60C4FF"/>
    <path fill-rule="evenodd" clip-rule="evenodd" d="M205.617 67.2105H205.024V65.6918C205.024 65.2202 204.847 64.9859 204.49 64.9859C204.314 64.9859 204.171 65.0518 204.061 65.181C203.952 65.3108 203.898 65.4632 203.898 65.6373V67.2105H203.304V65.3165C203.304 65.0831 203.297 64.8312 203.284 64.5554H203.804L203.831 64.9667H203.848C203.919 64.8433 204.02 64.7354 204.154 64.6521C204.316 64.554 204.494 64.5043 204.692 64.5043C204.939 64.5043 205.145 64.5848 205.31 64.7452C205.514 64.9409 205.617 65.2346 205.617 65.6267V67.2105Z" fill="#60C4FF"/>
    <path fill-rule="evenodd" clip-rule="evenodd" d="M207.23 63.9091C207.23 64.0616 207.185 64.1823 207.088 64.2739C206.992 64.3697 206.867 64.4137 206.715 64.4137C206.579 64.4137 206.464 64.3683 206.369 64.2695C206.278 64.1757 206.23 64.0547 206.23 63.9092C206.23 63.7677 206.279 63.6455 206.373 63.5531C206.47 63.4594 206.589 63.4137 206.73 63.4137C206.872 63.4137 206.992 63.4594 207.088 63.5531C207.185 63.6455 207.23 63.7676 207.23 63.9091ZM207.296 67.2105H206.296V64.5554H207.296V67.2105Z" fill="#60C4FF"/>
    <path fill-rule="evenodd" clip-rule="evenodd" d="M208.971 65.001H208.318V66.2894C208.318 66.6161 208.433 66.7785 208.663 66.7785C208.768 66.7785 208.856 66.7733 208.926 66.7564L208.943 67.2029C208.826 67.2403 208.672 67.2618 208.484 67.2618C208.249 67.2618 208.068 67.1922 207.937 67.0537C207.804 66.9102 207.74 66.6731 207.74 66.3418V65.001H207.352V64.5554H207.74V64.0732L208.318 63.8994V64.5554H208.971V65.001Z" fill="#60C4FF"/>
    <path fill-rule="evenodd" clip-rule="evenodd" d="M211.107 66.447C211.107 66.6957 211.015 66.8919 210.833 67.0411C210.651 67.189 210.399 67.2618 210.079 67.2618C209.776 67.2618 209.519 67.2042 209.308 67.0902L209.433 66.6508C209.638 66.7755 209.853 66.8388 210.084 66.8388C210.384 66.8388 210.536 66.7255 210.536 66.5027C210.536 66.4066 210.502 66.3259 210.437 66.2627C210.372 66.1967 210.256 66.1337 210.088 66.0742C209.617 65.8972 209.381 65.6436 209.381 65.3066C209.381 65.0776 209.467 64.8877 209.643 64.7324C209.817 64.5809 210.048 64.5043 210.335 64.5043C210.598 64.5043 210.822 64.5576 211.007 64.6637L210.882 65.0831C210.713 64.9793 210.532 64.9284 210.344 64.9284C210.22 64.9284 210.122 64.956 210.053 65.0158C209.985 65.0755 209.95 65.1499 209.95 65.2403C209.95 65.3333 209.989 65.4061 210.059 65.4632C210.121 65.5189 210.242 65.5806 210.419 65.646C210.877 65.8196 211.107 66.0879 211.107 66.447Z" fill="#60C4FF"/>
    <path fill-rule="evenodd" clip-rule="evenodd" d="M214.5 34.5H181.5V1.5H214.5V34.5Z" stroke="white"/>
    <path fill-rule="evenodd" clip-rule="evenodd" d="M189.316 15.5709C189.316 17.5575 190.005 19.503 191.256 21.0422L192.233 20.2473C191.162 18.9316 190.573 17.2709 190.573 15.5709C190.573 13.8725 191.159 12.2126 192.227 10.8985L191.25 10.1054C190.004 11.645 189.316 13.5857 189.316 15.5709Z" fill="white"/>
    <path fill-rule="evenodd" clip-rule="evenodd" d="M186.912 15.5709C186.912 18.1032 187.789 20.5788 189.38 22.5444L190.355 21.7527C188.945 20.0106 188.167 17.816 188.167 15.5709C188.167 13.3249 188.942 11.1312 190.351 9.39149L189.373 8.59955C187.786 10.5631 186.912 13.0379 186.912 15.5709Z" fill="white"/>
    <path fill-rule="evenodd" clip-rule="evenodd" d="M184.534 15.5709C184.534 18.6478 185.601 21.6563 187.535 24.0451L188.514 23.2529C186.76 21.088 185.792 18.3594 185.792 15.5709C185.792 12.7835 186.755 10.0595 188.503 7.90002L187.524 7.10718C185.596 9.49166 184.534 12.4974 184.534 15.5709Z" fill="white"/>
    <path fill-rule="evenodd" clip-rule="evenodd" d="M203.762 10.8985C204.827 12.2126 205.413 13.8725 205.413 15.5709C205.413 17.2709 204.824 18.9316 203.755 20.2472L204.73 21.0421C205.983 19.503 206.673 17.5575 206.673 15.5709C206.673 13.5857 205.986 11.645 204.738 10.1054L203.762 10.8985Z" fill="white"/>
    <path fill-rule="evenodd" clip-rule="evenodd" d="M205.637 9.39149C207.043 11.1312 207.819 13.3249 207.819 15.5709C207.819 17.816 207.042 20.0105 205.631 21.7526L206.608 22.5443C208.2 20.5787 209.076 18.1031 209.076 15.5709C209.076 13.0379 208.2 10.5631 206.614 8.59955L205.637 9.39149Z" fill="white"/>
    <path fill-rule="evenodd" clip-rule="evenodd" d="M207.485 7.90004C209.232 10.0595 210.194 12.7835 210.194 15.5709C210.194 18.3594 209.228 21.088 207.474 23.2529L208.452 24.0451C210.387 21.6563 211.454 18.6478 211.454 15.5709C211.454 12.4974 210.392 9.49166 208.464 7.10718L207.485 7.90004Z" fill="white"/>
    <path fill-rule="evenodd" clip-rule="evenodd" d="M192.312 15.5709C192.312 18.7036 194.861 21.2534 197.994 21.2534C201.127 21.2534 203.675 18.7036 203.675 15.5709C203.675 12.436 201.127 9.88708 197.994 9.88708C194.861 9.88708 192.312 12.436 192.312 15.5709ZM193.515 15.5709C193.515 13.1009 195.525 11.0925 197.994 11.0925C200.462 11.0925 202.47 13.1009 202.47 15.5709C202.47 18.0405 200.462 20.0481 197.994 20.0481C195.525 20.0481 193.515 18.0405 193.515 15.5709Z" fill="white"/>
    <path fill-rule="evenodd" clip-rule="evenodd" d="M187.707 31.2105H187.078L186.734 30.1337H185.538L185.211 31.2105H184.599L185.783 27.531H186.515L187.707 31.2105ZM186.643 29.6829L186.328 28.7171C186.294 28.6203 186.231 28.3879 186.14 28.0219H186.129C186.091 28.1789 186.033 28.4103 185.952 28.7171L185.643 29.6829H186.643Z" fill="white"/>
    <path fill-rule="evenodd" clip-rule="evenodd" d="M190.372 31.2105H189.853L189.821 30.8116H189.812C189.623 31.116 189.345 31.2684 188.968 31.2684C188.705 31.2684 188.498 31.189 188.341 31.0304C188.153 30.828 188.062 30.5242 188.062 30.1215V28.5554H188.652V30.0211C188.652 30.5312 188.829 30.7877 189.175 30.7877C189.435 30.7877 189.618 30.6574 189.719 30.4035C189.745 30.3389 189.758 30.264 189.758 30.1789V28.5554H190.349V30.4493C190.349 30.7003 190.356 30.9547 190.372 31.2105Z" fill="white"/>
    <path fill-rule="evenodd" clip-rule="evenodd" d="M193.469 31.2104H192.944L192.916 30.7892H192.901C192.733 31.1102 192.448 31.2684 192.048 31.2684C191.728 31.2684 191.461 31.1431 191.25 30.8939C191.037 30.6437 190.931 30.3215 190.931 29.9177C190.931 29.489 191.047 29.1424 191.277 28.8771C191.502 28.629 191.777 28.5043 192.102 28.5043C192.461 28.5043 192.712 28.6268 192.855 28.8665V27.3433H193.447V30.4988C193.447 30.7578 193.453 30.9961 193.469 31.2104ZM192.855 30.0963V29.6544C192.855 29.5772 192.85 29.5147 192.838 29.4675C192.806 29.3267 192.735 29.2056 192.625 29.1107C192.515 29.0126 192.385 28.9635 192.231 28.9635C192.013 28.9635 191.838 29.0518 191.714 29.2271C191.587 29.4025 191.526 29.6277 191.526 29.8994C191.526 30.1604 191.584 30.3767 191.705 30.539C191.832 30.7135 192.005 30.8022 192.222 30.8022C192.414 30.8022 192.567 30.7288 192.686 30.5825C192.798 30.447 192.855 30.2862 192.855 30.0963Z" fill="white"/>
    <path fill-rule="evenodd" clip-rule="evenodd" d="M195.117 27.9091C195.117 28.0616 195.068 28.1823 194.973 28.2739C194.878 28.3697 194.753 28.4137 194.601 28.4137C194.466 28.4137 194.352 28.3683 194.257 28.2694C194.165 28.1757 194.117 28.0547 194.117 27.9091C194.117 27.7678 194.165 27.6455 194.26 27.5531C194.355 27.4594 194.476 27.4137 194.617 27.4137C194.759 27.4137 194.878 27.4594 194.973 27.5531C195.068 27.6455 195.117 27.7678 195.117 27.9091ZM195.184 31.2105H194.184V28.5554H195.184V31.2105Z" fill="white"/>
    <path fill-rule="evenodd" clip-rule="evenodd" d="M197.948 29.8655C197.948 30.2734 197.832 30.6092 197.599 30.8714C197.355 31.1361 197.031 31.2684 196.626 31.2684C196.235 31.2684 195.925 31.1399 195.693 30.8833C195.463 30.6266 195.348 30.3035 195.348 29.907C195.348 29.4983 195.465 29.1607 195.704 28.8976C195.944 28.6375 196.265 28.5043 196.669 28.5043C197.06 28.5043 197.372 28.6361 197.611 28.8941C197.836 29.1435 197.948 29.4675 197.948 29.8655ZM197.337 29.8812C197.337 29.6373 197.284 29.4281 197.178 29.2523C197.054 29.0411 196.878 28.9345 196.647 28.9345C196.411 28.9345 196.231 29.0411 196.107 29.2523C196.001 29.4281 195.948 29.6428 195.948 29.8919C195.948 30.1351 196.001 30.3473 196.107 30.5207C196.233 30.7308 196.412 30.8388 196.643 30.8388C196.869 30.8388 197.045 30.7297 197.172 30.5152C197.282 30.3384 197.337 30.1254 197.337 29.8812Z" fill="white"/>
    <path fill-rule="evenodd" clip-rule="evenodd" d="M202.574 29.669C202.574 30.2104 202.441 30.62 202.18 30.891C201.939 31.1422 201.6 31.2684 201.162 31.2684C200.265 31.2684 199.818 30.7386 199.818 29.6797V27.531H200.41V29.7105C200.41 30.0719 200.482 30.3473 200.627 30.5312C200.759 30.7051 200.943 30.7948 201.185 30.7948C201.716 30.7948 201.981 30.4334 201.981 29.7105V27.531H202.574V29.669Z" fill="white"/>
    <path fill-rule="evenodd" clip-rule="evenodd" d="M205.617 31.2105H205.024V29.6918C205.024 29.2202 204.847 28.9859 204.49 28.9859C204.314 28.9859 204.171 29.0518 204.061 29.181C203.952 29.3108 203.898 29.4632 203.898 29.6373V31.2105H203.305V29.3165C203.305 29.0831 203.297 28.8312 203.284 28.5554H203.804L203.831 28.9667H203.848C203.919 28.8433 204.02 28.7354 204.154 28.6521C204.316 28.554 204.494 28.5043 204.692 28.5043C204.939 28.5043 205.145 28.5848 205.31 28.7452C205.514 28.9409 205.617 29.2346 205.617 29.6267V31.2105Z" fill="white"/>
    <path fill-rule="evenodd" clip-rule="evenodd" d="M207.23 27.9091C207.23 28.0616 207.185 28.1823 207.088 28.2739C206.992 28.3697 206.867 28.4137 206.715 28.4137C206.579 28.4137 206.464 28.3683 206.369 28.2694C206.278 28.1757 206.23 28.0547 206.23 27.9091C206.23 27.7678 206.279 27.6455 206.373 27.5531C206.47 27.4594 206.589 27.4137 206.73 27.4137C206.872 27.4137 206.992 27.4594 207.088 27.5531C207.185 27.6455 207.23 27.7678 207.23 27.9091ZM207.296 31.2105H206.296V28.5554H207.296V31.2105Z" fill="white"/>
    <path fill-rule="evenodd" clip-rule="evenodd" d="M208.971 29.001H208.318V30.2894C208.318 30.6161 208.433 30.7785 208.663 30.7785C208.768 30.7785 208.856 30.7733 208.926 30.7564L208.943 31.2029C208.826 31.2404 208.672 31.2618 208.484 31.2618C208.249 31.2618 208.068 31.1922 207.937 31.0537C207.804 30.9102 207.74 30.6731 207.74 30.3418V29.001H207.352V28.5554H207.74V28.0733L208.318 27.8994V28.5554H208.971V29.001Z" fill="white"/>
    <path fill-rule="evenodd" clip-rule="evenodd" d="M211.107 30.447C211.107 30.6957 211.015 30.8919 210.833 31.0411C210.651 31.189 210.399 31.2618 210.079 31.2618C209.776 31.2618 209.519 31.2042 209.308 31.0902L209.433 30.6508C209.638 30.7755 209.853 30.8388 210.084 30.8388C210.384 30.8388 210.536 30.7256 210.536 30.5027C210.536 30.4066 210.502 30.3259 210.437 30.2626C210.372 30.1967 210.256 30.1337 210.088 30.0742C209.617 29.8972 209.381 29.6436 209.381 29.3066C209.381 29.0776 209.467 28.8877 209.643 28.7324C209.817 28.5809 210.048 28.5043 210.335 28.5043C210.598 28.5043 210.822 28.5576 211.007 28.6637L210.882 29.0831C210.713 28.9793 210.532 28.9284 210.344 28.9284C210.22 28.9284 210.122 28.956 210.053 29.0158C209.985 29.0756 209.95 29.1499 209.95 29.2403C209.95 29.3333 209.989 29.4061 210.059 29.4632C210.121 29.5189 210.242 29.5807 210.419 29.646C210.877 29.8196 211.107 30.0879 211.107 30.447Z" fill="white"/>
    <path fill-rule="evenodd" clip-rule="evenodd" d="M250.675 43.6897V64.2603H217.325V43.6897H250.675ZM251 43.375H250.675H217.325H217V43.6897V64.2603V64.575H217.325H250.675H251V64.2603V43.6897V43.375Z" fill="#60C4FF"/>
    <path fill-rule="evenodd" clip-rule="evenodd" d="M222.883 60.0833C222.765 60.3408 222.41 61.0274 221.494 61.0274C220.725 61.0274 219.986 60.541 219.986 59.368C219.986 58.6814 220.4 57.7659 221.494 57.7659C222.322 57.7659 222.647 58.2808 222.795 58.71L222.203 58.853C222.174 58.5097 221.878 58.2808 221.523 58.2808C220.991 58.2808 220.637 58.6528 220.637 59.368C220.637 59.7972 220.814 60.4552 221.523 60.4552C221.937 60.4552 222.203 60.1405 222.292 59.8258L222.883 60.0833Z" fill="#60C4FF"/>
    <path fill-rule="evenodd" clip-rule="evenodd" d="M224.805 57.7659C225.781 57.7659 226.343 58.5383 226.343 59.368C226.343 60.0833 225.958 61.0274 224.805 61.0274C223.859 61.0274 223.268 60.2835 223.268 59.3966C223.268 58.5097 223.859 57.7659 224.805 57.7659ZM224.805 60.4838C225.278 60.4838 225.722 60.1405 225.722 59.4252C225.722 58.8817 225.426 58.3095 224.776 58.3095C224.243 58.3095 223.859 58.71 223.859 59.3966C223.889 59.883 224.125 60.4838 224.805 60.4838Z" fill="#60C4FF"/>
    <path fill-rule="evenodd" clip-rule="evenodd" d="M229.27 60.9416C229.27 60.8557 229.329 58.3953 229.329 58.3953L228.649 60.9416H228.117L227.437 58.3953C227.437 58.3953 227.496 60.8271 227.496 60.9416H226.904V57.8517H227.762L228.383 60.1405L229.003 57.8517H229.861V60.9416H229.27Z" fill="#60C4FF"/>
    <path fill-rule="evenodd" clip-rule="evenodd" d="M232.019 57.8517C232.67 57.8517 233.143 58.2522 233.143 58.8816C233.143 59.4538 232.817 59.883 231.96 59.883H231.339V60.9416H230.748V57.8517H232.019ZM231.369 59.4252H231.901C232.315 59.4252 232.551 59.225 232.551 58.8816C232.551 58.3953 232.137 58.3667 231.842 58.3667H231.398V59.4252H231.369Z" fill="#60C4FF"/>
    <path fill-rule="evenodd" clip-rule="evenodd" d="M235.39 60.9416L235.212 60.3408H234L233.823 60.9416H233.172L234.236 57.8517H234.916L236.01 60.9416H235.39ZM234.648 58.4239L234.148 59.8544H235.148L234.648 58.4239Z" fill="#60C4FF"/>
    <path fill-rule="evenodd" clip-rule="evenodd" d="M237.252 58.3667V60.9416H236.661V58.3667H235.803V57.8517H238.169V58.3667H237.252Z" fill="#60C4FF"/>
    <path fill-rule="evenodd" clip-rule="evenodd" d="M238.612 60.9416V57.8517H239.612V60.9416H238.612Z" fill="#60C4FF"/>
    <path fill-rule="evenodd" clip-rule="evenodd" d="M241.539 57.8517C242.219 57.8517 242.515 58.2236 242.515 58.6242C242.515 58.8816 242.367 59.225 241.983 59.2536C242.278 59.3108 242.663 59.5397 242.663 60.0833C242.663 60.5124 242.396 60.9702 241.598 60.9702H240.12V57.8517H241.539ZM240.711 59.3381H241.303C241.569 59.3381 241.894 59.227 241.894 58.8195C241.894 58.4121 241.569 58.3381 241.332 58.3381H240.711V59.3381ZM240.711 60.5397H241.51C241.923 60.5397 242.071 60.3209 242.071 60.0709C242.071 59.6022 241.628 59.5397 241.391 59.5397H240.711V60.5397Z" fill="#60C4FF"/>
    <path fill-rule="evenodd" clip-rule="evenodd" d="M243.431 60.9416V57.8517H244.023V60.4266H245.294V60.9416H243.431Z" fill="#60C4FF"/>
    <path fill-rule="evenodd" clip-rule="evenodd" d="M245.678 60.9416V57.8517H247.955V58.3667H246.27V59.0819H247.807V59.5683H246.27V60.398H248.073V60.9129H245.678V60.9416Z" fill="#60C4FF"/>
    <path fill-rule="evenodd" clip-rule="evenodd" d="M237.37 48.7823H248.073L248.103 50.6133H247.6C247.423 49.9839 246.95 49.5548 246.151 49.3545C245.708 49.24 245.028 49.1542 244.141 49.1542V53.7318C244.141 54.0465 244.259 54.1895 244.466 54.2754C244.703 54.3899 245.176 54.3899 245.885 54.3899V54.7904H239.588V54.3899C240.268 54.3899 240.741 54.3327 240.977 54.2468C241.214 54.1323 241.332 54.0465 241.332 53.7318V49.1542C240.475 49.1542 239.795 49.24 239.351 49.3545C238.494 49.5834 238.021 50.0125 237.903 50.6133C237.755 50.6133 237.4 50.6133 237.4 50.6133L237.37 48.7823Z" fill="#60C4FF"/>
    <path fill-rule="evenodd" clip-rule="evenodd" d="M228.974 51.8722L229.95 51.9866L229.979 52.0152C230.363 52.7877 230.984 53.3885 231.842 53.7318C232.699 54.1037 233.704 54.2754 234.828 54.2754C235.922 54.2754 236.69 54.161 237.134 53.9035C237.577 53.6746 237.784 53.4171 237.784 53.1596C237.784 52.8735 237.548 52.616 237.104 52.4444C236.779 52.3013 236.129 52.1297 235.183 51.9294L233.616 51.5861C232.078 51.2427 230.955 50.8994 230.334 50.5561C229.684 50.2128 229.358 49.755 229.358 49.24C229.358 48.6965 229.802 48.1815 230.659 47.6951C231.517 47.2373 232.817 47.0085 234.562 47.0085C235.449 47.0085 236.306 47.0657 237.134 47.1801C237.666 47.266 238.405 47.3518 238.553 47.3518C238.878 47.3518 238.997 47.2946 239.056 47.266C239.144 47.2087 239.233 47.1229 239.292 47.0085L239.322 46.9799H240.15V49.4689H239.263L239.233 49.4403C238.908 48.8967 238.346 48.439 237.548 48.067C236.75 47.6665 235.774 47.4948 234.65 47.4948C233.852 47.4948 233.202 47.5807 232.758 47.7809C232.315 47.9526 232.108 48.1815 232.108 48.439C232.108 48.7537 232.315 48.9825 232.729 49.1542C233.172 49.3259 234.148 49.5834 235.626 49.8981L237.43 50.2986C238.228 50.4703 238.878 50.6705 239.351 50.8994C240.268 51.3286 240.741 51.8436 240.741 52.4444C240.741 53.0166 240.238 53.5602 239.263 54.0465C238.317 54.5329 236.75 54.7904 234.65 54.7904C234.177 54.7904 233.675 54.7618 233.172 54.7332C232.67 54.7046 232.167 54.6187 231.694 54.5615L231.221 54.4757C231.103 54.4757 231.014 54.4471 230.925 54.4471C230.837 54.4471 230.748 54.4185 230.659 54.4185C230.423 54.4185 230.275 54.4471 230.186 54.5043C230.097 54.5615 230.038 54.6473 229.95 54.7618L229.92 54.7904H228.974V51.8722Z" fill="#60C4FF"/>
    <path fill-rule="evenodd" clip-rule="evenodd" d="M239.972 47.0943V49.4403H239.292C238.967 48.8967 238.405 48.4389 237.607 48.0384C236.809 47.6379 235.833 47.4376 234.68 47.4376C233.852 47.4376 233.231 47.5234 232.758 47.7237C232.285 47.924 232.049 48.1529 232.049 48.4389C232.049 48.7823 232.285 49.0398 232.729 49.2114C233.172 49.3831 234.148 49.6406 235.656 49.9553L237.459 50.3558C238.257 50.5275 238.908 50.7278 239.381 50.9566C240.268 51.3572 240.711 51.8722 240.711 52.4444C240.711 52.988 240.238 53.5029 239.263 53.9893C238.317 54.4757 236.779 54.7046 234.68 54.7046C234.207 54.7046 233.704 54.6759 233.202 54.6473C232.699 54.6187 232.226 54.5615 231.723 54.4757L231.25 54.3898C231.132 54.3898 231.043 54.3612 230.925 54.3612C230.837 54.3612 230.748 54.3326 230.659 54.3326C230.423 54.3326 230.245 54.3612 230.157 54.4184C230.068 54.4757 229.979 54.5615 229.92 54.7046H229.063V51.9294L229.92 52.0438C230.304 52.8449 230.925 53.4457 231.812 53.789C232.699 54.161 233.675 54.3326 234.798 54.3326C235.892 54.3326 236.661 54.2182 237.134 53.9607C237.607 53.7032 237.814 53.4457 237.814 53.1596C237.814 52.8449 237.577 52.5874 237.075 52.3585C236.75 52.2155 236.099 52.0438 235.153 51.8435L233.586 51.5002C232.049 51.1569 230.955 50.8136 230.304 50.4703C229.683 50.1269 229.358 49.7264 229.358 49.2114C229.358 48.6964 229.772 48.1815 230.6 47.7237C231.457 47.2659 232.729 47.0371 234.473 47.0371C235.36 47.0371 236.217 47.0943 237.016 47.2087C237.843 47.3232 238.317 47.3804 238.435 47.3804C238.701 47.3804 238.878 47.3518 238.997 47.2946C239.085 47.2373 239.174 47.1229 239.233 47.0085H239.972M240.09 46.9512H239.943H239.263H239.174L239.144 47.0084C239.085 47.0943 239.026 47.1801 238.937 47.2373C238.908 47.2659 238.79 47.3232 238.464 47.3232C238.317 47.3232 237.37 47.1801 237.075 47.1515C236.247 47.0371 235.39 46.9798 234.503 46.9798C232.758 46.9798 231.428 47.2087 230.57 47.6951C229.683 48.1815 229.24 48.6964 229.24 49.2973C229.24 49.8408 229.595 50.2986 230.275 50.6705C230.925 51.0139 232.019 51.3572 233.586 51.7005L235.153 52.0438C236.099 52.2441 236.75 52.4157 237.075 52.5588C237.489 52.7305 237.725 52.9593 237.725 53.2168C237.725 53.4457 237.518 53.6746 237.104 53.9035C236.661 54.1323 235.892 54.2468 234.828 54.2468C233.734 54.2468 232.729 54.0751 231.871 53.7032C230.984 53.3599 230.393 52.7877 230.009 52.0152L229.979 51.9294H229.89L229.033 51.8149H228.915V51.958V54.7332V54.8762H229.063H229.92H230.009L230.038 54.819C230.097 54.7045 230.157 54.6473 230.245 54.5901C230.275 54.5615 230.393 54.5043 230.689 54.5043C230.748 54.5043 230.837 54.5043 230.925 54.5329C231.014 54.5329 231.132 54.5615 231.25 54.5615L231.723 54.6473C232.197 54.7332 232.699 54.7904 233.202 54.819C233.704 54.8476 234.207 54.8762 234.68 54.8762C236.809 54.8762 238.376 54.6187 239.351 54.1323C240.357 53.6174 240.859 53.0738 240.859 52.473C240.859 51.8435 240.386 51.3 239.44 50.8708C238.967 50.6419 238.287 50.4417 237.489 50.27L235.685 49.8695C234.207 49.5547 233.231 49.2973 232.788 49.1256C232.403 48.9825 232.197 48.7537 232.197 48.4962C232.197 48.2673 232.403 48.067 232.817 47.8954C233.261 47.6951 233.911 47.6093 234.71 47.6093C235.833 47.6093 236.809 47.8095 237.577 48.1815C238.376 48.5534 238.908 49.0112 239.233 49.5261L239.263 49.5834H239.351H240.031H240.179V49.4403V47.0943V46.9512H240.09Z" fill="black"/>
    <path fill-rule="evenodd" clip-rule="evenodd" d="M225.249 54.9621L220.784 49.8981C220.607 49.6978 220.43 49.5548 220.252 49.4689C220.075 49.3831 219.572 49.3259 219.129 49.3259H219.07V48.9254H225.278V49.3545H225.219C224.598 49.3831 224.214 49.4117 224.007 49.4403C223.8 49.4689 223.8 49.5548 223.8 49.6406C223.8 49.6692 223.8 49.7264 223.8 49.755C223.8 49.7837 223.83 49.8123 223.859 49.8409L226.461 52.9308H226.49L228.737 50.0984C228.796 50.0411 228.826 49.9839 228.856 49.9267C228.915 49.8409 228.944 49.755 228.944 49.6978C228.944 49.612 228.915 49.4976 228.708 49.4689C228.53 49.4403 228.117 49.4117 227.525 49.3831H227.466V48.954H231.546V49.3545H231.487C231.043 49.3831 230.482 49.4403 230.304 49.5262C230.097 49.612 229.92 49.7836 229.713 50.0125L225.781 54.9621H225.249Z" fill="#60C4FF"/>
    <path fill-rule="evenodd" clip-rule="evenodd" d="M231.516 48.9826V49.2687C231.103 49.2973 230.511 49.3545 230.304 49.4403C230.097 49.5262 229.89 49.6978 229.683 49.9553L225.751 54.9048H225.278L220.814 49.8409C220.637 49.6406 220.459 49.4976 220.252 49.4117C220.075 49.3259 219.513 49.2687 219.099 49.2401V48.954H225.16V49.2401C224.539 49.2687 224.125 49.2973 223.948 49.3259C223.77 49.3545 223.682 49.4403 223.682 49.5834C223.682 49.612 223.682 49.6692 223.711 49.6978C223.741 49.7264 223.77 49.7837 223.8 49.8123L226.431 52.9308H226.55L228.826 50.0984C228.885 50.0411 228.915 49.9839 228.974 49.8981C229.033 49.7837 229.063 49.6978 229.063 49.6406C229.063 49.4689 228.974 49.3831 228.767 49.3545C228.59 49.3259 228.176 49.2687 227.584 49.2687V48.9826H231.516ZM231.664 48.8395H231.516H227.584H227.437V48.9826V49.2687V49.4117H227.584C228.176 49.4403 228.56 49.4689 228.737 49.4976C228.915 49.5262 228.915 49.5834 228.915 49.6406C228.915 49.6692 228.915 49.7264 228.826 49.8409C228.796 49.8981 228.737 49.9553 228.708 50.0125L226.49 52.7877L223.918 49.755C223.889 49.7264 223.859 49.6978 223.859 49.6692C223.859 49.6406 223.859 49.612 223.859 49.5834C223.859 49.5548 223.859 49.4976 224.007 49.4689C224.184 49.4403 224.569 49.4117 225.19 49.3831H225.337V49.2401V48.954V48.8109H225.19H219.129H218.981V48.954V49.2401V49.3545H219.099C219.602 49.3831 220.045 49.4403 220.193 49.4976C220.37 49.5834 220.548 49.7264 220.696 49.8981L225.16 54.9335L225.19 54.9907H225.249H225.722H225.781L225.81 54.9335L229.802 50.0125C229.979 49.7837 230.186 49.6406 230.363 49.5548C230.511 49.4689 230.984 49.4117 231.516 49.3831H231.635V49.2687V48.9826V48.8395H231.664Z" fill="black"/>
    <path fill-rule="evenodd" clip-rule="evenodd" d="M248.014 47.6093C247.304 47.6093 246.713 47.0371 246.713 46.3505C246.713 45.6638 247.304 45.0916 248.014 45.0916C248.723 45.0916 249.315 45.6638 249.315 46.3218C249.344 47.0371 248.783 47.6093 248.014 47.6093ZM248.014 45.1774C247.363 45.1774 246.831 45.6924 246.831 46.3218C246.831 46.9513 247.334 47.4662 248.014 47.4662C248.664 47.4662 249.196 46.9513 249.196 46.3505C249.196 45.6924 248.694 45.1774 248.014 45.1774ZM247.984 45.5208C248.398 45.5208 248.576 45.6638 248.576 45.9785C248.576 46.236 248.457 46.3505 248.221 46.4363L248.605 47.1229H248.31L247.955 46.4649H247.748V47.1229H247.482V45.5208H247.984ZM247.777 46.721H248.166C248.611 46.721 248.777 46.5544 248.777 46.221C248.777 45.8877 248.555 45.721 248.111 45.721H247.777V46.721Z" fill="#60C4FF"/>
    <path fill-rule="evenodd" clip-rule="evenodd" d="M250.675 7.68971V28.2603H217.325V7.68971H250.675ZM251 7.375H250.675H217.325H217V7.68971V28.2603V28.575H217.325H250.675H251V28.2603V7.68971V7.375Z" fill="white"/>
    <path fill-rule="evenodd" clip-rule="evenodd" d="M222.883 24.0832C222.765 24.3407 222.41 25.0273 221.494 25.0273C220.725 25.0273 219.986 24.541 219.986 23.368C219.986 22.6813 220.4 21.7658 221.494 21.7658C222.322 21.7658 222.647 22.2808 222.795 22.7099L222.203 22.853C222.174 22.5097 221.878 22.2808 221.523 22.2808C220.991 22.2808 220.637 22.6527 220.637 23.368C220.637 23.7971 220.814 24.4551 221.523 24.4551C221.937 24.4551 222.203 24.1404 222.292 23.8257L222.883 24.0832Z" fill="white"/>
    <path fill-rule="evenodd" clip-rule="evenodd" d="M224.805 21.7658C225.781 21.7658 226.343 22.5383 226.343 23.368C226.343 24.0832 225.958 25.0273 224.805 25.0273C223.859 25.0273 223.268 24.2835 223.268 23.3966C223.268 22.5097 223.859 21.7658 224.805 21.7658ZM224.805 24.4838C225.278 24.4838 225.722 24.1404 225.722 23.4252C225.722 22.8816 225.426 22.3094 224.776 22.3094C224.243 22.3094 223.859 22.7099 223.859 23.3966C223.889 23.8829 224.125 24.4838 224.805 24.4838Z" fill="white"/>
    <path fill-rule="evenodd" clip-rule="evenodd" d="M229.27 24.9415C229.27 24.8557 229.329 22.3952 229.329 22.3952L228.649 24.9415H228.117L227.437 22.3952C227.437 22.3952 227.496 24.8271 227.496 24.9415H226.904V21.8516H227.762L228.383 24.1404L229.003 21.8516H229.861V24.9415H229.27Z" fill="white"/>
    <path fill-rule="evenodd" clip-rule="evenodd" d="M232.019 21.8516C232.67 21.8516 233.143 22.2522 233.143 22.8816C233.143 23.4538 232.817 23.8829 231.96 23.8829H231.339V24.9415H230.748V21.8516H232.019ZM231.369 23.4252H231.901C232.315 23.4252 232.551 23.2249 232.551 22.8816C232.551 22.3952 232.137 22.3666 231.842 22.3666H231.398V23.4252H231.369Z" fill="white"/>
    <path fill-rule="evenodd" clip-rule="evenodd" d="M235.39 24.9415L235.212 24.3407H234L233.823 24.9415H233.172L234.236 21.8516H234.916L236.01 24.9415H235.39ZM234.648 22.4238L234.148 23.8543H235.148L234.648 22.4238Z" fill="white"/>
    <path fill-rule="evenodd" clip-rule="evenodd" d="M237.252 22.3666V24.9415H236.661V22.3666H235.803V21.8516H238.169V22.3666H237.252Z" fill="white"/>
    <path fill-rule="evenodd" clip-rule="evenodd" d="M238.612 24.9415V21.8516H239.612V24.9415H238.612Z" fill="white"/>
    <path fill-rule="evenodd" clip-rule="evenodd" d="M241.539 21.8516C242.219 21.8516 242.515 22.2236 242.515 22.6241C242.515 22.8816 242.367 23.2249 241.983 23.2535C242.278 23.3107 242.663 23.5396 242.663 24.0832C242.663 24.5124 242.396 24.9701 241.598 24.9701H240.12V21.8516H241.539ZM240.711 23.338H241.303C241.569 23.338 241.894 23.2269 241.894 22.8195C241.894 22.4121 241.569 22.338 241.332 22.338H240.711V23.338ZM240.711 24.5396H241.51C241.923 24.5396 242.071 24.3209 242.071 24.0709C242.071 23.6021 241.628 23.5396 241.391 23.5396H240.711V24.5396Z" fill="white"/>
    <path fill-rule="evenodd" clip-rule="evenodd" d="M243.431 24.9415V21.8516H244.023V24.4265H245.294V24.9415H243.431Z" fill="white"/>
    <path fill-rule="evenodd" clip-rule="evenodd" d="M245.678 24.9415V21.8516H247.955V22.3666H246.27V23.0819H247.807V23.5682H246.27V24.3979H248.073V24.9129H245.678V24.9415Z" fill="white"/>
    <path fill-rule="evenodd" clip-rule="evenodd" d="M237.37 12.7823H248.073L248.103 14.6133H247.6C247.423 13.9839 246.95 13.5548 246.151 13.3545C245.708 13.24 245.028 13.1542 244.141 13.1542V17.7318C244.141 18.0465 244.259 18.1895 244.466 18.2754C244.703 18.3899 245.176 18.3899 245.885 18.3899V18.7904H239.588V18.3899C240.268 18.3899 240.741 18.3327 240.977 18.2468C241.214 18.1323 241.332 18.0465 241.332 17.7318V13.1542C240.475 13.1542 239.795 13.24 239.351 13.3545C238.494 13.5834 238.021 14.0125 237.903 14.6133C237.755 14.6133 237.4 14.6133 237.4 14.6133L237.37 12.7823Z" fill="white"/>
    <path fill-rule="evenodd" clip-rule="evenodd" d="M228.974 15.8722L229.95 15.9866L229.979 16.0152C230.363 16.7877 230.984 17.3885 231.842 17.7318C232.699 18.1037 233.704 18.2754 234.828 18.2754C235.922 18.2754 236.69 18.161 237.134 17.9035C237.577 17.6746 237.784 17.4171 237.784 17.1596C237.784 16.8735 237.548 16.616 237.104 16.4444C236.779 16.3013 236.129 16.1297 235.183 15.9294L233.616 15.5861C232.078 15.2428 230.955 14.8994 230.334 14.5561C229.683 14.2128 229.358 13.755 229.358 13.24C229.358 12.6965 229.802 12.1815 230.659 11.6951C231.517 11.2373 232.817 11.0085 234.562 11.0085C235.449 11.0085 236.306 11.0657 237.134 11.1801C237.666 11.266 238.405 11.3518 238.553 11.3518C238.878 11.3518 238.997 11.2946 239.056 11.266C239.144 11.2087 239.233 11.1229 239.292 11.0085L239.322 10.9799H240.149V13.4689H239.263L239.233 13.4403C238.908 12.8967 238.346 12.439 237.548 12.067C236.75 11.6665 235.774 11.4948 234.65 11.4948C233.852 11.4948 233.202 11.5807 232.758 11.7809C232.315 11.9526 232.108 12.1815 232.108 12.439C232.108 12.7537 232.315 12.9825 232.729 13.1542C233.172 13.3259 234.148 13.5834 235.626 13.8981L237.43 14.2986C238.228 14.4703 238.878 14.6705 239.351 14.8994C240.268 15.3286 240.741 15.8436 240.741 16.4444C240.741 17.0166 240.238 17.5602 239.263 18.0465C238.317 18.5329 236.75 18.7904 234.65 18.7904C234.177 18.7904 233.675 18.7618 233.172 18.7332C232.67 18.7046 232.167 18.6187 231.694 18.5615L231.221 18.4757C231.103 18.4757 231.014 18.4471 230.925 18.4471C230.837 18.4471 230.748 18.4185 230.659 18.4185C230.423 18.4185 230.275 18.4471 230.186 18.5043C230.097 18.5615 230.038 18.6473 229.95 18.7618L229.92 18.7904H228.974V15.8722Z" fill="white"/>
    <path fill-rule="evenodd" clip-rule="evenodd" d="M239.972 11.0943V13.4403H239.292C238.967 12.8967 238.405 12.4389 237.607 12.0384C236.809 11.6379 235.833 11.4376 234.68 11.4376C233.852 11.4376 233.231 11.5234 232.758 11.7237C232.285 11.924 232.049 12.1529 232.049 12.4389C232.049 12.7823 232.285 13.0398 232.729 13.2114C233.172 13.3831 234.148 13.6406 235.656 13.9553L237.459 14.3558C238.257 14.5275 238.908 14.7278 239.381 14.9566C240.268 15.3572 240.711 15.8722 240.711 16.4444C240.711 16.988 240.238 17.5029 239.263 17.9893C238.317 18.4757 236.779 18.7046 234.68 18.7046C234.207 18.7046 233.704 18.6759 233.202 18.6473C232.699 18.6187 232.226 18.5615 231.723 18.4757L231.25 18.3898C231.132 18.3898 231.043 18.3612 230.925 18.3612C230.837 18.3612 230.748 18.3326 230.659 18.3326C230.423 18.3326 230.245 18.3612 230.157 18.4184C230.068 18.4757 229.979 18.5615 229.92 18.7046H229.063V15.9294L229.92 16.0438C230.304 16.8449 230.925 17.4457 231.812 17.789C232.699 18.161 233.675 18.3326 234.798 18.3326C235.892 18.3326 236.661 18.2182 237.134 17.9607C237.607 17.7032 237.814 17.4457 237.814 17.1596C237.814 16.8449 237.577 16.5874 237.075 16.3585C236.75 16.2155 236.099 16.0438 235.153 15.8435L233.586 15.5002C232.049 15.1569 230.955 14.8136 230.304 14.4703C229.683 14.1269 229.358 13.7264 229.358 13.2114C229.358 12.6964 229.772 12.1815 230.6 11.7237C231.457 11.2659 232.729 11.0371 234.473 11.0371C235.36 11.0371 236.217 11.0943 237.016 11.2087C237.843 11.3232 238.317 11.3804 238.435 11.3804C238.701 11.3804 238.878 11.3518 238.997 11.2946C239.085 11.2373 239.174 11.1229 239.233 11.0085H239.972M240.09 10.9512H239.943H239.263H239.174L239.144 11.0085C239.085 11.0943 239.026 11.1801 238.937 11.2373C238.908 11.2659 238.79 11.3232 238.464 11.3232C238.317 11.3232 237.37 11.1801 237.075 11.1515C236.247 11.0371 235.39 10.9798 234.503 10.9798C232.758 10.9798 231.428 11.2087 230.57 11.6951C229.683 12.1815 229.24 12.6964 229.24 13.2973C229.24 13.8408 229.595 14.2986 230.275 14.6705C230.925 15.0139 232.019 15.3572 233.586 15.7005L235.153 16.0438C236.099 16.2441 236.75 16.4157 237.075 16.5588C237.489 16.7305 237.725 16.9593 237.725 17.2168C237.725 17.4457 237.518 17.6746 237.104 17.9035C236.661 18.1323 235.892 18.2468 234.828 18.2468C233.734 18.2468 232.729 18.0751 231.871 17.7032C230.984 17.3599 230.393 16.7877 230.009 16.0152L229.979 15.9294H229.89L229.033 15.8149H228.915V15.958V18.7332V18.8762H229.063H229.92H230.009L230.038 18.819C230.097 18.7045 230.157 18.6473 230.245 18.5901C230.275 18.5615 230.393 18.5043 230.689 18.5043C230.748 18.5043 230.837 18.5043 230.925 18.5329C231.014 18.5329 231.132 18.5615 231.25 18.5615L231.723 18.6473C232.197 18.7332 232.699 18.7904 233.202 18.819C233.704 18.8476 234.207 18.8762 234.68 18.8762C236.809 18.8762 238.376 18.6187 239.351 18.1323C240.357 17.6174 240.859 17.0738 240.859 16.473C240.859 15.8435 240.386 15.3 239.44 14.8708C238.967 14.6419 238.287 14.4417 237.489 14.27L235.685 13.8695C234.207 13.5547 233.231 13.2973 232.788 13.1256C232.403 12.9825 232.197 12.7537 232.197 12.4962C232.197 12.2673 232.403 12.067 232.817 11.8954C233.261 11.6951 233.911 11.6093 234.71 11.6093C235.833 11.6093 236.809 11.8095 237.577 12.1815C238.376 12.5534 238.908 13.0112 239.233 13.5261L239.263 13.5834H239.351H240.031H240.179V13.4403V11.0943V10.9512H240.09Z" fill="black"/>
    <path fill-rule="evenodd" clip-rule="evenodd" d="M225.249 18.9621L220.784 13.8981C220.607 13.6978 220.43 13.5548 220.252 13.4689C220.075 13.3831 219.572 13.3259 219.129 13.3259H219.07V12.9254H225.278V13.3545H225.219C224.598 13.3831 224.214 13.4117 224.007 13.4403C223.8 13.4689 223.8 13.5548 223.8 13.6406C223.8 13.6692 223.8 13.7264 223.8 13.755C223.8 13.7837 223.83 13.8123 223.859 13.8409L226.461 16.9308H226.49L228.737 14.0984C228.796 14.0411 228.826 13.9839 228.856 13.9267C228.915 13.8409 228.944 13.755 228.944 13.6978C228.944 13.612 228.915 13.4976 228.708 13.4689C228.53 13.4403 228.117 13.4117 227.525 13.3831H227.466V12.954H231.546V13.3545H231.487C231.043 13.3831 230.482 13.4403 230.304 13.5262C230.097 13.612 229.92 13.7837 229.713 14.0125L225.781 18.9621H225.249Z" fill="white"/>
    <path fill-rule="evenodd" clip-rule="evenodd" d="M231.516 12.9826V13.2687C231.103 13.2973 230.511 13.3545 230.304 13.4403C230.097 13.5262 229.89 13.6978 229.683 13.9553L225.751 18.9048H225.278L220.814 13.8409C220.637 13.6406 220.459 13.4976 220.252 13.4117C220.075 13.3259 219.513 13.2687 219.099 13.2401V12.954H225.16V13.2401C224.539 13.2687 224.125 13.2973 223.948 13.3259C223.77 13.3545 223.682 13.4403 223.682 13.5834C223.682 13.612 223.682 13.6692 223.711 13.6978C223.741 13.7264 223.77 13.7837 223.8 13.8123L226.431 16.9308H226.55L228.826 14.0984C228.885 14.0411 228.915 13.9839 228.974 13.8981C229.033 13.7837 229.063 13.6978 229.063 13.6406C229.063 13.4689 228.974 13.3831 228.767 13.3545C228.59 13.3259 228.176 13.2687 227.584 13.2687V12.9826H231.516ZM231.664 12.8395H231.516H227.584H227.437V12.9826V13.2687V13.4117H227.584C228.176 13.4403 228.56 13.4689 228.737 13.4976C228.915 13.5262 228.915 13.5834 228.915 13.6406C228.915 13.6692 228.915 13.7264 228.826 13.8409C228.796 13.8981 228.737 13.9553 228.708 14.0125L226.49 16.7877L223.918 13.755C223.889 13.7264 223.859 13.6978 223.859 13.6692C223.859 13.6406 223.859 13.612 223.859 13.5834C223.859 13.5548 223.859 13.4976 224.007 13.4689C224.184 13.4403 224.569 13.4117 225.19 13.3831H225.337V13.2401V12.954V12.8109H225.19H219.129H218.981V12.954V13.2401V13.3545H219.099C219.602 13.3831 220.045 13.4403 220.193 13.4976C220.37 13.5834 220.548 13.7264 220.696 13.8981L225.16 18.9335L225.19 18.9907H225.249H225.722H225.781L225.81 18.9335L229.802 14.0125C229.979 13.7837 230.186 13.6406 230.363 13.5548C230.511 13.4689 230.984 13.4117 231.516 13.3831H231.635V13.2687V12.9826V12.8395H231.664Z" fill="black"/>
    <path fill-rule="evenodd" clip-rule="evenodd" d="M248.014 11.6093C247.304 11.6093 246.713 11.0371 246.713 10.3505C246.713 9.66381 247.304 9.09161 248.014 9.09161C248.723 9.09161 249.315 9.66381 249.315 10.3218C249.344 11.0371 248.783 11.6093 248.014 11.6093ZM248.014 9.17744C247.363 9.17744 246.831 9.69242 246.831 10.3218C246.831 10.9513 247.334 11.4662 248.014 11.4662C248.664 11.4662 249.196 10.9513 249.196 10.3505C249.196 9.69242 248.694 9.17744 248.014 9.17744ZM247.984 9.52077C248.398 9.52077 248.576 9.66382 248.576 9.97853C248.576 10.236 248.457 10.3505 248.221 10.4363L248.605 11.1229H248.31L247.955 10.4649H247.748V11.1229H247.482V9.52077H247.984ZM247.777 10.721H248.166C248.611 10.721 248.777 10.5544 248.777 10.221C248.777 9.8877 248.555 9.72104 248.111 9.72104H247.777V10.721Z" fill="white"/>
    <path d="M258.088 61.1398C257.976 61.4471 257.59 62.242 256.594 62.242C255.777 62.242 254.978 61.6575 254.978 60.3047C254.978 59.4997 255.416 58.4408 256.619 58.4408C257.51 58.4408 257.877 59.0387 258.024 59.5565L257.382 59.7301C257.344 59.336 257.025 59.0587 256.642 59.0587C256.08 59.0587 255.678 59.5097 255.678 60.3147C255.678 60.8057 255.869 61.6007 256.635 61.6007C257.082 61.6007 257.37 61.2433 257.472 60.8725L258.085 61.1398H258.088Z" fill="#60C4FF"/>
    <path d="M260.163 58.4376C261.216 58.4376 261.816 59.3395 261.816 60.3182C261.816 61.1365 261.392 62.2388 260.147 62.2388C259.129 62.2388 258.503 61.357 258.503 60.3449C258.503 59.3328 259.164 58.4409 260.163 58.4409V58.4376ZM260.166 61.6109C260.68 61.6109 261.165 61.1967 261.165 60.375C261.165 59.7303 260.843 59.0589 260.156 59.0589C259.588 59.0589 259.167 59.5265 259.167 60.3182C259.167 60.8827 259.425 61.6075 260.166 61.6075V61.6109Z" fill="#60C4FF"/>
    <path d="M264.999 62.1487C264.999 62.0618 265.063 59.1791 265.063 59.1791L264.313 62.1487H263.732L262.982 59.1791C262.982 59.1791 263.046 62.0318 263.046 62.1487H262.413V58.5311H263.352L264.029 61.2167L264.696 58.5311H265.631V62.1487H264.999Z" fill="#60C4FF"/>
    <path d="M267.962 58.5311C268.677 58.5311 269.191 58.9921 269.191 59.7336C269.191 60.3883 268.83 60.9161 267.927 60.9161H267.266V62.1453H266.621V58.5278H267.962V58.5311ZM267.269 60.3649H267.837C268.297 60.3649 268.527 60.1378 268.527 59.7136C268.527 59.129 268.077 59.109 267.764 59.109H267.269V60.3649Z" fill="#60C4FF"/>
    <path d="M271.595 62.1487L271.393 61.4405H270.097L269.896 62.1487H269.2L270.372 58.5311H271.106L272.287 62.1487H271.598H271.595ZM270.749 59.1825L270.27 60.8459H271.224L270.749 59.1825Z" fill="#60C4FF"/>
    <path d="M273.625 59.1424V62.1487H272.98V59.1424H272.042V58.5311H274.583V59.1424H273.628H273.625Z" fill="#60C4FF"/>
    <path d="M275.074 62.1487V58.5311H275.709V62.1487H275.074Z" fill="#60C4FF"/>
    <path d="M278.254 58.5311C278.978 58.5311 279.301 58.952 279.301 59.4163C279.301 59.7136 279.144 60.1011 278.729 60.1645C279.049 60.2247 279.464 60.4986 279.464 61.1232C279.464 61.6142 279.189 62.1487 278.298 62.1487H276.709V58.5311H278.257H278.254ZM277.35 59.9875H278.002C278.289 59.9875 278.637 59.8906 278.637 59.5299C278.637 59.1691 278.279 59.0856 278.021 59.0856H277.35V59.9875ZM277.35 61.5641H278.203C278.643 61.5641 278.806 61.327 278.806 61.0631C278.806 60.5553 278.34 60.4952 278.072 60.4952H277.354V61.5675L277.35 61.5641Z" fill="#60C4FF"/>
    <path d="M280.29 62.1487V58.5311H280.942V61.534H282.311V62.1487H280.29Z" fill="#60C4FF"/>
    <path d="M282.723 62.1487V58.5311H285.181V59.1357H283.358V59.9875H285.028V60.572H283.358V61.5407H285.302V62.1487H282.723Z" fill="#60C4FF"/>
    <path d="M264.275 52.2046H262.132L261.373 53.9215H259.828L263.39 46.2455H265.149L266.046 53.9215H264.402L264.271 52.2046H264.275ZM264.013 47.7152H263.994L262.643 50.9052H264.179L264.013 47.7152Z" fill="#60C4FF"/>
    <path d="M271.106 47.8054C270.761 47.585 270.254 47.4113 269.823 47.4113C269.306 47.4113 268.868 47.6752 268.773 48.2464C268.536 49.6426 271.336 48.9946 270.876 51.7236C270.63 53.1766 269.456 54.0551 268.099 54.0551C267.269 54.0551 266.592 53.8347 266.314 53.7378L266.656 52.2413C267.1 52.4518 267.476 52.7157 268.073 52.7157C268.581 52.7157 269.117 52.4284 269.226 51.8038C269.475 50.3173 266.666 51.0455 267.125 48.3065C267.164 48.076 267.572 46.1186 269.861 46.1186C270.487 46.1186 270.857 46.2388 271.419 46.3825L271.109 47.8121L271.106 47.8054Z" fill="#60C4FF"/>
    <path d="M272.533 46.2422H274.136L272.843 53.9182H271.24L272.533 46.2422Z" fill="#60C4FF"/>
    <path d="M277.67 46.1119C279.636 46.1119 280.284 47.8288 279.904 50.0835C279.524 52.3382 278.295 54.0551 276.332 54.0551C274.369 54.0551 273.727 52.3382 274.107 50.0835C274.487 47.8288 275.706 46.1119 277.67 46.1119ZM276.549 52.7557C277.478 52.7557 278.011 51.5566 278.26 50.0835C278.509 48.6104 278.378 47.4113 277.449 47.4113C276.52 47.4113 275.997 48.6104 275.748 50.0835C275.499 51.5566 275.62 52.7557 276.549 52.7557Z" fill="#60C4FF"/>
    <path d="M253.944 50.314L259.796 45.5407L258.187 55.0873L253.944 50.314Z" fill="#60C4FF"/>
    <path d="M286.551 50.314L280.699 55.0906L282.308 45.5407L286.551 50.314Z" fill="#60C4FF"/>
    <path d="M286.021 47.1574C285.456 47.1574 284.999 46.6831 284.999 46.0852C284.999 45.4873 285.453 45.0129 286.024 45.0129C286.595 45.0129 287.045 45.4873 287.045 46.0618C287.045 46.6831 286.605 47.1541 286.021 47.1541V47.1574ZM286.024 45.1198C285.516 45.1198 285.108 45.5541 285.108 46.0919C285.108 46.6296 285.513 47.0572 286.024 47.0572C286.535 47.0572 286.943 46.623 286.943 46.1086C286.943 45.5474 286.547 45.1198 286.024 45.1198ZM285.998 45.4104C286.314 45.4104 286.455 45.5273 286.455 45.7979C286.455 46.005 286.369 46.1219 286.18 46.1754L286.474 46.7633H286.254L285.979 46.1954H285.823V46.7633H285.625V45.4104H285.998ZM285.826 46.0117H285.989C286.174 46.0117 286.254 45.9482 286.254 45.8012C286.254 45.6543 286.171 45.5942 285.97 45.5942H285.826V46.0117Z" fill="#60C4FF"/>
    <path d="M258.088 25.1398C257.976 25.4471 257.59 26.242 256.594 26.242C255.777 26.242 254.978 25.6575 254.978 24.3047C254.978 23.4997 255.416 22.4408 256.619 22.4408C257.51 22.4408 257.877 23.0387 258.024 23.5565L257.382 23.7301C257.344 23.336 257.025 23.0587 256.642 23.0587C256.08 23.0587 255.678 23.5097 255.678 24.3147C255.678 24.8057 255.869 25.6007 256.635 25.6007C257.082 25.6007 257.37 25.2433 257.472 24.8725L258.085 25.1398H258.088Z" fill="white"/>
    <path d="M260.163 22.4376C261.216 22.4376 261.816 23.3395 261.816 24.3182C261.816 25.1365 261.392 26.2388 260.147 26.2388C259.129 26.2388 258.503 25.357 258.503 24.3449C258.503 23.3328 259.164 22.4409 260.163 22.4409V22.4376ZM260.166 25.6109C260.68 25.6109 261.165 25.1967 261.165 24.375C261.165 23.7303 260.843 23.0589 260.156 23.0589C259.588 23.0589 259.167 23.5265 259.167 24.3182C259.167 24.8827 259.425 25.6075 260.166 25.6075V25.6109Z" fill="white"/>
    <path d="M264.999 26.1487C264.999 26.0618 265.063 23.1791 265.063 23.1791L264.313 26.1487H263.732L262.982 23.1791C262.982 23.1791 263.046 26.0318 263.046 26.1487H262.413V22.5311H263.352L264.029 25.2167L264.696 22.5311H265.631V26.1487H264.999Z" fill="white"/>
    <path d="M267.962 22.5311C268.677 22.5311 269.191 22.9921 269.191 23.7336C269.191 24.3883 268.83 24.9161 267.927 24.9161H267.266V26.1453H266.621V22.5278H267.962V22.5311ZM267.269 24.3649H267.837C268.297 24.3649 268.527 24.1378 268.527 23.7136C268.527 23.129 268.077 23.109 267.764 23.109H267.269V24.3649Z" fill="white"/>
    <path d="M271.595 26.1487L271.393 25.4405H270.097L269.896 26.1487H269.2L270.372 22.5311H271.106L272.287 26.1487H271.598H271.595ZM270.749 23.1825L270.27 24.8459H271.224L270.749 23.1825Z" fill="white"/>
    <path d="M273.625 23.1424V26.1487H272.98V23.1424H272.042V22.5311H274.583V23.1424H273.628H273.625Z" fill="white"/>
    <path d="M275.074 26.1487V22.5311H275.709V26.1487H275.074Z" fill="white"/>
    <path d="M278.254 22.5311C278.978 22.5311 279.301 22.952 279.301 23.4163C279.301 23.7136 279.144 24.1011 278.729 24.1645C279.049 24.2247 279.464 24.4986 279.464 25.1232C279.464 25.6142 279.189 26.1487 278.298 26.1487H276.709V22.5311H278.257H278.254ZM277.35 23.9875H278.002C278.289 23.9875 278.637 23.8906 278.637 23.5299C278.637 23.1691 278.279 23.0856 278.021 23.0856H277.35V23.9875ZM277.35 25.5641H278.203C278.643 25.5641 278.806 25.327 278.806 25.0631C278.806 24.5553 278.34 24.4952 278.072 24.4952H277.354V25.5675L277.35 25.5641Z" fill="white"/>
    <path d="M280.29 26.1487V22.5311H280.942V25.534H282.311V26.1487H280.29Z" fill="white"/>
    <path d="M282.723 26.1487V22.5311H285.181V23.1357H283.358V23.9875H285.028V24.572H283.358V25.5407H285.302V26.1487H282.723Z" fill="white"/>
    <path d="M264.275 16.2046H262.132L261.373 17.9215H259.828L263.39 10.2455H265.149L266.046 17.9215H264.402L264.271 16.2046H264.275ZM264.013 11.7152H263.994L262.643 14.9052H264.179L264.013 11.7152Z" fill="white"/>
    <path d="M271.106 11.8054C270.761 11.585 270.254 11.4113 269.823 11.4113C269.306 11.4113 268.868 11.6752 268.773 12.2464C268.536 13.6426 271.336 12.9946 270.876 15.7236C270.63 17.1766 269.456 18.0551 268.099 18.0551C267.269 18.0551 266.592 17.8347 266.314 17.7378L266.656 16.2413C267.1 16.4518 267.476 16.7157 268.073 16.7157C268.581 16.7157 269.117 16.4284 269.226 15.8038C269.475 14.3173 266.666 15.0455 267.125 12.3065C267.164 12.076 267.572 10.1186 269.861 10.1186C270.487 10.1186 270.857 10.2388 271.419 10.3825L271.109 11.8121L271.106 11.8054Z" fill="white"/>
    <path d="M272.533 10.2422H274.136L272.843 17.9182H271.24L272.533 10.2422Z" fill="white"/>
    <path d="M277.67 10.1119C279.636 10.1119 280.284 11.8288 279.904 14.0835C279.524 16.3382 278.295 18.0551 276.332 18.0551C274.369 18.0551 273.727 16.3382 274.107 14.0835C274.487 11.8288 275.706 10.1119 277.67 10.1119ZM276.549 16.7557C277.478 16.7557 278.011 15.5566 278.26 14.0835C278.509 12.6104 278.378 11.4113 277.449 11.4113C276.52 11.4113 275.997 12.6104 275.748 14.0835C275.499 15.5566 275.62 16.7557 276.549 16.7557Z" fill="white"/>
    <path d="M253.944 14.314L259.796 9.54071L258.187 19.0873L253.944 14.314Z" fill="white"/>
    <path d="M286.551 14.314L280.699 19.0906L282.308 9.54071L286.551 14.314Z" fill="white"/>
    <path d="M286.021 11.1574C285.456 11.1574 284.999 10.6831 284.999 10.0852C284.999 9.48726 285.453 9.01294 286.024 9.01294C286.595 9.01294 287.045 9.48726 287.045 10.0618C287.045 10.6831 286.605 11.1541 286.021 11.1541V11.1574ZM286.024 9.11983C285.516 9.11983 285.108 9.55407 285.108 10.0919C285.108 10.6296 285.513 11.0572 286.024 11.0572C286.535 11.0572 286.943 10.623 286.943 10.1086C286.943 9.54739 286.547 9.11983 286.024 9.11983ZM285.998 9.41043C286.314 9.41043 286.455 9.52734 286.455 9.79791C286.455 10.005 286.369 10.1219 286.18 10.1754L286.474 10.7633H286.254L285.979 10.1954H285.823V10.7633H285.625V9.41043H285.998ZM285.826 10.0117H285.989C286.174 10.0117 286.254 9.94822 286.254 9.80125C286.254 9.65428 286.171 9.59415 285.97 9.59415H285.826V10.0117Z" fill="white"/>
    <path fill-rule="evenodd" clip-rule="evenodd" d="M306 68C298.274 68 292 61.7185 292 54.0049C292 46.2914 298.284 40 306 40C313.716 40 320 46.2815 320 53.9951C320 61.7086 313.726 68 306 68ZM306 40.9383C298.797 40.9383 292.929 46.7951 292.929 54.0049C292.929 61.2148 298.788 67.0716 306 67.0716C313.212 67.0716 319.071 61.2148 319.071 54.0049C319.071 46.7951 313.212 40.9383 306 40.9383Z" fill="#60C4FF"/>
    <path fill-rule="evenodd" clip-rule="evenodd" d="M317.056 53.5308C317.293 53.5308 317.53 53.4419 317.698 53.274C317.886 53.0864 317.965 52.8395 317.935 52.5827C317.678 50.3901 316.809 48.3061 315.435 46.5679C315.267 46.3506 315.03 46.2419 314.783 46.2419C314.556 46.2419 314.339 46.3407 314.171 46.5086L307.413 53.2543C307.304 53.3629 307.383 53.5407 307.531 53.5407L317.056 53.5308Z" fill="#60C4FF"/>
    <path fill-rule="evenodd" clip-rule="evenodd" d="M314.783 61.7679C315.04 61.7679 315.267 61.6494 315.435 61.442C316.809 59.7037 317.668 57.6197 317.935 55.4272C317.965 55.1704 317.876 54.9235 317.698 54.7358C317.53 54.5679 317.293 54.479 317.056 54.479H307.531C307.383 54.479 307.314 54.6568 307.413 54.7654L314.171 61.521C314.339 61.6691 314.556 61.7679 314.783 61.7679Z" fill="#60C4FF"/>
    <path fill-rule="evenodd" clip-rule="evenodd" d="M306.721 65.6987C306.899 65.8765 307.146 65.9654 307.423 65.9259C309.626 65.6691 311.711 64.8099 313.44 63.437C313.647 63.279 313.756 63.042 313.766 62.7753C313.766 62.5383 313.667 62.3111 313.489 62.1432L306.761 55.4173C306.652 55.3086 306.474 55.3876 306.474 55.5358V65.0864C306.474 65.3136 306.553 65.5407 306.721 65.6987Z" fill="#60C4FF"/>
    <path fill-rule="evenodd" clip-rule="evenodd" d="M297.227 46.2321C296.97 46.2321 296.742 46.3506 296.574 46.558C295.201 48.2963 294.342 50.3802 294.075 52.5728C294.045 52.8296 294.134 53.0765 294.312 53.2642C294.48 53.4321 294.717 53.521 294.954 53.521H304.479C304.627 53.521 304.696 53.3432 304.597 53.2346L297.839 46.4988C297.671 46.3309 297.454 46.2321 297.227 46.2321Z" fill="#60C4FF"/>
    <path fill-rule="evenodd" clip-rule="evenodd" d="M305.289 42.3012C305.111 42.1235 304.864 42.0346 304.587 42.0741C302.394 42.3309 300.309 43.1901 298.57 44.563C298.363 44.721 298.254 44.958 298.244 45.2247C298.244 45.4617 298.343 45.6889 298.521 45.8568L305.249 52.5827C305.358 52.6914 305.536 52.6124 305.536 52.4642V42.9136C305.536 42.6864 305.447 42.4691 305.289 42.3012Z" fill="#60C4FF"/>
    <path fill-rule="evenodd" clip-rule="evenodd" d="M313.776 45.2247C313.776 44.9679 313.657 44.7407 313.45 44.5728C311.711 43.2 309.626 42.3407 307.433 42.0741C307.176 42.0444 306.929 42.1333 306.741 42.3111C306.573 42.479 306.484 42.716 306.484 42.9531V52.4741C306.484 52.6222 306.662 52.6913 306.771 52.5926L313.529 45.837C313.677 45.6691 313.776 45.4518 313.776 45.2247Z" fill="#60C4FF"/>
    <path fill-rule="evenodd" clip-rule="evenodd" d="M304.478 54.4691H294.954C294.717 54.4691 294.48 54.558 294.312 54.7259C294.124 54.9136 294.045 55.1605 294.075 55.4173C294.332 57.6099 295.201 59.6938 296.574 61.4321C296.742 61.6494 296.98 61.758 297.227 61.758C297.454 61.758 297.671 61.6593 297.839 61.4914L304.597 54.7358C304.696 54.6469 304.627 54.4691 304.478 54.4691Z" fill="#60C4FF"/>
    <path fill-rule="evenodd" clip-rule="evenodd" d="M305.259 55.4074L298.521 62.1432C298.353 62.3111 298.244 62.5382 298.244 62.7753C298.244 63.042 298.363 63.279 298.57 63.437C300.309 64.8099 302.384 65.6691 304.587 65.9259C304.854 65.9555 305.101 65.8765 305.289 65.6987C305.447 65.5407 305.536 65.3234 305.536 65.0765V55.5259C305.536 55.3778 305.358 55.3086 305.259 55.4074Z" fill="#60C4FF"/>
    <path fill-rule="evenodd" clip-rule="evenodd" d="M306 32C298.274 32 292 25.7185 292 18.0049C292 10.2914 298.284 4 306 4C313.716 4 320 10.2815 320 17.9951C320 25.7086 313.726 32 306 32ZM306 4.93827C298.797 4.93827 292.929 10.7951 292.929 18.0049C292.929 25.2148 298.788 31.0716 306 31.0716C313.212 31.0716 319.071 25.2148 319.071 18.0049C319.071 10.7951 313.212 4.93827 306 4.93827Z" fill="white"/>
    <path fill-rule="evenodd" clip-rule="evenodd" d="M317.056 17.5309C317.293 17.5309 317.53 17.442 317.698 17.2741C317.886 17.0864 317.965 16.8395 317.935 16.5827C317.678 14.3901 316.809 12.3062 315.435 10.5679C315.267 10.3506 315.03 10.242 314.783 10.242C314.556 10.242 314.339 10.3407 314.171 10.5086L307.413 17.2543C307.304 17.363 307.383 17.5407 307.531 17.5407L317.056 17.5309Z" fill="white"/>
    <path fill-rule="evenodd" clip-rule="evenodd" d="M314.783 25.7679C315.04 25.7679 315.267 25.6494 315.435 25.442C316.809 23.7037 317.668 21.6197 317.935 19.4272C317.965 19.1704 317.876 18.9234 317.698 18.7358C317.53 18.5679 317.293 18.479 317.056 18.479H307.531C307.383 18.479 307.314 18.6568 307.413 18.7654L314.171 25.521C314.339 25.6691 314.556 25.7679 314.783 25.7679Z" fill="white"/>
    <path fill-rule="evenodd" clip-rule="evenodd" d="M306.721 29.6988C306.899 29.8766 307.146 29.9654 307.423 29.9259C309.626 29.6691 311.711 28.8099 313.44 27.437C313.647 27.279 313.756 27.042 313.766 26.7753C313.766 26.5383 313.667 26.3111 313.489 26.1432L306.761 19.4173C306.652 19.3087 306.474 19.3877 306.474 19.5358V29.0864C306.474 29.3136 306.553 29.5408 306.721 29.6988Z" fill="white"/>
    <path fill-rule="evenodd" clip-rule="evenodd" d="M297.227 10.2321C296.97 10.2321 296.742 10.3506 296.574 10.558C295.201 12.2963 294.342 14.3802 294.075 16.5728C294.045 16.8296 294.134 17.0765 294.312 17.2642C294.48 17.4321 294.717 17.521 294.954 17.521H304.479C304.627 17.521 304.696 17.3432 304.597 17.2346L297.839 10.4988C297.671 10.3309 297.454 10.2321 297.227 10.2321Z" fill="white"/>
    <path fill-rule="evenodd" clip-rule="evenodd" d="M305.289 6.30125C305.111 6.12347 304.864 6.03458 304.587 6.07409C302.394 6.33088 300.309 7.19013 298.57 8.56297C298.363 8.721 298.254 8.95804 298.244 9.2247C298.244 9.46174 298.343 9.6889 298.521 9.8568L305.249 16.5827C305.358 16.6913 305.536 16.6123 305.536 16.4642V6.91359C305.536 6.68643 305.447 6.46915 305.289 6.30125Z" fill="white"/>
    <path fill-rule="evenodd" clip-rule="evenodd" d="M313.776 9.22468C313.776 8.96789 313.657 8.74073 313.45 8.57283C311.711 7.19999 309.626 6.34073 307.433 6.07407C307.176 6.04444 306.929 6.13333 306.741 6.3111C306.573 6.479 306.484 6.71604 306.484 6.95308V16.4741C306.484 16.6222 306.662 16.6914 306.771 16.5926L313.529 9.83703C313.677 9.66913 313.776 9.45184 313.776 9.22468Z" fill="white"/>
    <path fill-rule="evenodd" clip-rule="evenodd" d="M304.478 18.4691H294.954C294.717 18.4691 294.48 18.558 294.312 18.7259C294.124 18.9136 294.045 19.1605 294.075 19.4173C294.332 21.6099 295.201 23.6938 296.574 25.4321C296.742 25.6494 296.98 25.758 297.227 25.758C297.454 25.758 297.671 25.6592 297.839 25.4913L304.597 18.7358C304.696 18.6469 304.627 18.4691 304.478 18.4691Z" fill="white"/>
    <path fill-rule="evenodd" clip-rule="evenodd" d="M305.259 19.4074L298.521 26.1432C298.353 26.3111 298.244 26.5383 298.244 26.7753C298.244 27.042 298.363 27.279 298.57 27.437C300.309 28.8099 302.384 29.6691 304.587 29.9259C304.854 29.9556 305.101 29.8766 305.289 29.6988C305.447 29.5407 305.536 29.3235 305.536 29.0766V19.5259C305.536 19.3778 305.358 19.3087 305.259 19.4074Z" fill="white"/>
  </g>
  <defs>
    <clipPath id="clip0_193_321">
      <rect width="324" height="72" fill="white"/>
    </clipPath>
  </defs>
</svg>