<?xml version="1.0" encoding="utf-8"?>
<svg width="100%" height="100%" viewBox="0 0 70 70" version="1.1" style="fill-rule:evenodd;clip-rule:evenodd;stroke-linejoin:round;stroke-miterlimit:2;" xmlns="http://www.w3.org/2000/svg">
  <g transform="matrix(0.882833, 0, 0, 0.910866, -1281.030151, -1521.475464)" style="">
    <g transform="matrix(1,0,-0.176327,1,393.985,0.0570476)">
      <rect x="22.877" y="26.542" width="68.279" height="67.135" rx="8" ry="8" style="fill: rgb(51, 51, 119); stroke: rgb(0, 0, 0);" transform="matrix(1, 0, 0.176327, 1, 1331.160767, 1648.834351)"/>
      <path d="M 1410.729 1700.684 L 1410.729 1686.604 L 1373.189 1686.604 L 1373.189 1730.554 L 1410.729 1730.554 L 1410.729 1716.324 L 1417.749 1716.324 L 1416.719 1710.514 L 1398.429 1710.514 L 1399.449 1716.324 L 1404.919 1716.324 L 1404.919 1724.754 C 1404.919 1724.754 1378.989 1724.754 1378.989 1724.754 C 1378.989 1724.754 1378.989 1692.404 1378.989 1692.404 C 1378.989 1692.404 1404.919 1692.404 1404.919 1692.404 L 1404.919 1700.684 L 1389.049 1700.684 L 1390.079 1706.494 L 1427.899 1706.494 L 1426.869 1700.684 L 1410.729 1700.684 Z" style="fill-rule: evenodd; clip-rule: evenodd; stroke-linejoin: round; stroke-miterlimit: 2; fill: rgb(254, 254, 254);" transform="matrix(1.00088, 0.005067, -0.005551, 0.999093, 8.25295, -5.546715)"/>
    </g>
  </g>
</svg>