<?xml version="1.0" encoding="utf-8"?>
<svg width="100%" height="100%" viewBox="0 0 78 80" version="1.1" style="fill-rule:evenodd;clip-rule:evenodd;stroke-linejoin:round;stroke-miterlimit:2;" xmlns="http://www.w3.org/2000/svg">
  <g transform="matrix(1,0,0,1,-1458,-1676)">
    <g transform="matrix(1,0,-0.176327,1,393.985,0.0570476)">
      <path d="M1417.56,1702.95L1417.56,1688.87L1380.02,1688.87L1380.02,1732.82L1417.56,1732.82L1417.56,1718.59L1424.58,1718.59L1423.55,1712.78L1405.26,1712.78L1406.28,1718.59L1411.75,1718.59L1411.75,1727.02C1411.75,1727.02 1385.82,1727.02 1385.82,1727.02C1385.82,1727.02 1385.82,1694.67 1385.82,1694.67C1385.82,1694.67 1411.75,1694.67 1411.75,1694.67L1411.75,1702.95L1395.88,1702.95L1396.91,1708.76L1434.73,1708.76L1433.7,1702.95L1417.56,1702.95Z" style="fill-rule: evenodd; clip-rule: evenodd; stroke-linejoin: round; stroke-miterlimit: 2; fill: rgb(255, 255, 255);"/>
    </g>
  </g>
</svg>