<?xml version="1.0" encoding="utf-8"?>
<svg width="178" height="130" viewBox="0 0 178 130" fill="none" xmlns="http://www.w3.org/2000/svg">
  <path d="M168 72C158.14 72 156.28 60 147 60H89M168 72C158.14 72 156.28 84 147 84H118M168 72H176" stroke="#777777" stroke-width="2"/>
  <path d="M169 72C159.14 72 157.28 36 148 36H59M169 72C159.14 72 157.28 108 148 108M169 72H177" stroke="#777777" stroke-width="2"/>
  <path d="M88 84H31C21.72 84 19.86 72 10 72M59 60H31C21.72 60 19.86 72 10 72M10 72H2" stroke="#777777" stroke-width="2"/>
  <path d="M29 108H118M9 72C18.86 72 20.72 36 30 36M9 72C18.86 72 20.72 108 30 108M9 72H1" stroke="#777777" stroke-width="2"/>
</svg>