<?xml version="1.0" encoding="utf-8"?>
<svg width="178" height="130" viewBox="0 0 178 130" fill="none" xmlns="http://www.w3.org/2000/svg">
  <path d="M177 72H166.56M166.56 72C156.7 72 157.28 52 148 52M166.56 72C156.7 72 157.28 92 148 92" stroke="#777777" stroke-width="2"/>
  <path d="M75.08 72H99.44M99.44 72C109.3 72 108.72 52 118 52M99.44 72C109.3 72 108.72 92 118 92M102.92 72H78.56M78.56 72C68.7 72 69.28 52 60 52M78.56 72C68.7 72 69.28 92 60 92" stroke="#777777" stroke-width="2"/>
  <path d="M1 72H11.44M11.44 72C21.3 72 20.72 52 30 52M11.44 72C21.3 72 20.72 92 30 92" stroke="#777777" stroke-width="2"/>
</svg>